<?xml version="1.0" encoding="utf-8" standalone="no"?>
<!DOCTYPE svg PUBLIC "-//W3C//DTD SVG 1.1//EN"
  "http://www.w3.org/Graphics/SVG/1.1/DTD/svg11.dtd">
<svg xmlns:xlink="http://www.w3.org/1999/xlink" width="864pt" height="388.8pt" viewBox="0 0 864 388.8" xmlns="http://www.w3.org/2000/svg" version="1.1">
 <metadata>
  <rdf:RDF xmlns:dc="http://purl.org/dc/elements/1.1/" xmlns:cc="http://creativecommons.org/ns#" xmlns:rdf="http://www.w3.org/1999/02/22-rdf-syntax-ns#">
   <cc:Work>
    <dc:type rdf:resource="http://purl.org/dc/dcmitype/StillImage"/>
    <dc:format>image/svg+xml</dc:format>
    <dc:creator>
     <cc:Agent>
      <dc:title>Matplotlib v3.10.8, https://matplotlib.org/</dc:title>
     </cc:Agent>
    </dc:creator>
   </cc:Work>
  </rdf:RDF>
 </metadata>
 <defs>
  <style type="text/css">*{stroke-linejoin: round; stroke-linecap: butt}</style>
 </defs>
 <g id="figure_1">
  <g id="patch_1">
   <path d="M 0 388.8 
L 864 388.8 
L 864 0 
L 0 0 
z
" style="fill: #ffffff"/>
  </g>
  <g id="axes_1">
   <g id="patch_2">
    <path d="M 64.8 330.48 
L 838.08 330.48 
L 838.08 81.648 
L 64.8 81.648 
z
" style="fill: #ffffff"/>
   </g>
   <g id="patch_3">
    <path d="M 744.23534 330.48 
L 774.265631 330.48 
L 774.265631 81.648 
L 744.23534 81.648 
z
" clip-path="url(#pb2f8f73e01)" style="fill: #e9edf0; stroke: #e9edf0; stroke-linejoin: miter"/>
   </g>
   <g id="matplotlib.axis_1">
    <g id="xtick_1">
     <g id="line2d_1"/>
     <g id="text_1">
      <!-- 2016 -->
      <g style="fill: #526173" transform="translate(71.358932 348.235313) scale(0.11 -0.11)">
       <defs>
        <path id="NotoSansCJKjp-Regular-32" d="M 282 0 
L 3232 0 
L 3232 506 
L 1933 506 
C 1696 506 1408 480 1165 461 
C 2266 1504 3008 2458 3008 3398 
C 3008 4230 2477 4774 1638 4774 
C 1043 4774 634 4506 256 4090 
L 595 3757 
C 858 4070 1184 4301 1568 4301 
C 2150 4301 2432 3910 2432 3373 
C 2432 2566 1754 1632 282 346 
L 282 0 
z
" transform="scale(0.015625)"/>
        <path id="NotoSansCJKjp-Regular-30" d="M 1779 -83 
C 2669 -83 3238 723 3238 2362 
C 3238 3987 2669 4774 1779 4774 
C 883 4774 320 3987 320 2362 
C 320 723 883 -83 1779 -83 
z
M 1779 390 
C 1248 390 883 986 883 2362 
C 883 3731 1248 4314 1779 4314 
C 2310 4314 2675 3731 2675 2362 
C 2675 986 2310 390 1779 390 
z
" transform="scale(0.015625)"/>
        <path id="NotoSansCJKjp-Regular-31" d="M 563 0 
L 3136 0 
L 3136 486 
L 2195 486 
L 2195 4691 
L 1747 4691 
C 1491 4544 1190 4435 774 4358 
L 774 3987 
L 1613 3987 
L 1613 486 
L 563 486 
L 563 0 
z
" transform="scale(0.015625)"/>
        <path id="NotoSansCJKjp-Regular-36" d="M 1926 -83 
C 2656 -83 3277 531 3277 1440 
C 3277 2426 2765 2912 1971 2912 
C 1606 2912 1197 2701 909 2349 
C 934 3802 1466 4294 2118 4294 
C 2400 4294 2682 4154 2861 3936 
L 3194 4294 
C 2931 4576 2579 4774 2093 4774 
C 1184 4774 358 4077 358 2240 
C 358 691 1030 -83 1926 -83 
z
M 922 1882 
C 1229 2317 1587 2477 1875 2477 
C 2445 2477 2720 2074 2720 1440 
C 2720 800 2374 378 1926 378 
C 1338 378 986 909 922 1882 
z
" transform="scale(0.015625)"/>
       </defs>
       <use xlink:href="#NotoSansCJKjp-Regular-32"/>
       <use xlink:href="#NotoSansCJKjp-Regular-30" transform="translate(55.499985 0)"/>
       <use xlink:href="#NotoSansCJKjp-Regular-31" transform="translate(110.999969 0)"/>
       <use xlink:href="#NotoSansCJKjp-Regular-36" transform="translate(166.499954 0)"/>
      </g>
     </g>
    </g>
    <g id="xtick_2">
     <g id="line2d_2"/>
     <g id="text_2">
      <!-- 2017 -->
      <g style="fill: #526173" transform="translate(146.43466 348.235313) scale(0.11 -0.11)">
       <defs>
        <path id="NotoSansCJKjp-Regular-37" d="M 1267 0 
L 1875 0 
C 1952 1837 2150 2931 3251 4339 
L 3251 4691 
L 314 4691 
L 314 4192 
L 2592 4192 
C 1670 2912 1350 1779 1267 0 
z
" transform="scale(0.015625)"/>
       </defs>
       <use xlink:href="#NotoSansCJKjp-Regular-32"/>
       <use xlink:href="#NotoSansCJKjp-Regular-30" transform="translate(55.499985 0)"/>
       <use xlink:href="#NotoSansCJKjp-Regular-31" transform="translate(110.999969 0)"/>
       <use xlink:href="#NotoSansCJKjp-Regular-37" transform="translate(166.499954 0)"/>
      </g>
     </g>
    </g>
    <g id="xtick_3">
     <g id="line2d_3"/>
     <g id="text_3">
      <!-- 2018 -->
      <g style="fill: #526173" transform="translate(221.510388 348.235313) scale(0.11 -0.11)">
       <defs>
        <path id="NotoSansCJKjp-Regular-38" d="M 1792 -83 
C 2669 -83 3258 448 3258 1126 
C 3258 1773 2880 2125 2470 2362 
L 2470 2394 
C 2746 2611 3091 3034 3091 3526 
C 3091 4250 2605 4762 1805 4762 
C 1075 4762 518 4282 518 3571 
C 518 3078 813 2726 1152 2490 
L 1152 2464 
C 723 2234 294 1792 294 1165 
C 294 442 922 -83 1792 -83 
z
M 2112 2547 
C 1555 2765 1050 3014 1050 3571 
C 1050 4026 1363 4326 1798 4326 
C 2298 4326 2592 3962 2592 3494 
C 2592 3149 2426 2829 2112 2547 
z
M 1798 352 
C 1235 352 813 717 813 1216 
C 813 1664 1082 2035 1459 2278 
C 2125 2010 2701 1779 2701 1146 
C 2701 678 2342 352 1798 352 
z
" transform="scale(0.015625)"/>
       </defs>
       <use xlink:href="#NotoSansCJKjp-Regular-32"/>
       <use xlink:href="#NotoSansCJKjp-Regular-30" transform="translate(55.499985 0)"/>
       <use xlink:href="#NotoSansCJKjp-Regular-31" transform="translate(110.999969 0)"/>
       <use xlink:href="#NotoSansCJKjp-Regular-38" transform="translate(166.499954 0)"/>
      </g>
     </g>
    </g>
    <g id="xtick_4">
     <g id="line2d_4"/>
     <g id="text_4">
      <!-- 2019 -->
      <g style="fill: #526173" transform="translate(296.586117 348.235313) scale(0.11 -0.11)">
       <defs>
        <path id="NotoSansCJKjp-Regular-39" d="M 1504 -83 
C 2381 -83 3206 646 3206 2547 
C 3206 4038 2528 4774 1626 4774 
C 896 4774 282 4166 282 3251 
C 282 2285 794 1779 1574 1779 
C 1965 1779 2368 2003 2656 2349 
C 2611 896 2086 403 1485 403 
C 1178 403 896 538 691 762 
L 371 397 
C 634 122 992 -83 1504 -83 
z
M 2650 2842 
C 2336 2394 1984 2214 1670 2214 
C 1114 2214 832 2624 832 3251 
C 832 3898 1178 4320 1632 4320 
C 2227 4320 2586 3808 2650 2842 
z
" transform="scale(0.015625)"/>
       </defs>
       <use xlink:href="#NotoSansCJKjp-Regular-32"/>
       <use xlink:href="#NotoSansCJKjp-Regular-30" transform="translate(55.499985 0)"/>
       <use xlink:href="#NotoSansCJKjp-Regular-31" transform="translate(110.999969 0)"/>
       <use xlink:href="#NotoSansCJKjp-Regular-39" transform="translate(166.499954 0)"/>
      </g>
     </g>
    </g>
    <g id="xtick_5">
     <g id="line2d_5"/>
     <g id="text_5">
      <!-- 2020 -->
      <g style="fill: #526173" transform="translate(371.661845 348.235313) scale(0.11 -0.11)">
       <use xlink:href="#NotoSansCJKjp-Regular-32"/>
       <use xlink:href="#NotoSansCJKjp-Regular-30" transform="translate(55.499985 0)"/>
       <use xlink:href="#NotoSansCJKjp-Regular-32" transform="translate(110.999969 0)"/>
       <use xlink:href="#NotoSansCJKjp-Regular-30" transform="translate(166.499954 0)"/>
      </g>
     </g>
    </g>
    <g id="xtick_6">
     <g id="line2d_6"/>
     <g id="text_6">
      <!-- 2021 -->
      <g style="fill: #526173" transform="translate(446.737573 348.235313) scale(0.11 -0.11)">
       <use xlink:href="#NotoSansCJKjp-Regular-32"/>
       <use xlink:href="#NotoSansCJKjp-Regular-30" transform="translate(55.499985 0)"/>
       <use xlink:href="#NotoSansCJKjp-Regular-32" transform="translate(110.999969 0)"/>
       <use xlink:href="#NotoSansCJKjp-Regular-31" transform="translate(166.499954 0)"/>
      </g>
     </g>
    </g>
    <g id="xtick_7">
     <g id="line2d_7"/>
     <g id="text_7">
      <!-- 2022 -->
      <g style="fill: #526173" transform="translate(521.813301 348.235313) scale(0.11 -0.11)">
       <use xlink:href="#NotoSansCJKjp-Regular-32"/>
       <use xlink:href="#NotoSansCJKjp-Regular-30" transform="translate(55.499985 0)"/>
       <use xlink:href="#NotoSansCJKjp-Regular-32" transform="translate(110.999969 0)"/>
       <use xlink:href="#NotoSansCJKjp-Regular-32" transform="translate(166.499954 0)"/>
      </g>
     </g>
    </g>
    <g id="xtick_8">
     <g id="line2d_8"/>
     <g id="text_8">
      <!-- 2023 -->
      <g style="fill: #526173" transform="translate(596.889029 348.235313) scale(0.11 -0.11)">
       <defs>
        <path id="NotoSansCJKjp-Regular-33" d="M 1683 -83 
C 2522 -83 3194 416 3194 1254 
C 3194 1901 2752 2310 2202 2445 
L 2202 2477 
C 2701 2650 3034 3034 3034 3603 
C 3034 4346 2458 4774 1664 4774 
C 1126 4774 710 4538 358 4218 
L 672 3846 
C 941 4115 1267 4301 1645 4301 
C 2138 4301 2438 4006 2438 3558 
C 2438 3053 2112 2662 1139 2662 
L 1139 2214 
C 2227 2214 2598 1843 2598 1274 
C 2598 736 2208 403 1645 403 
C 1114 403 762 659 486 941 
L 186 563 
C 493 224 954 -83 1683 -83 
z
" transform="scale(0.015625)"/>
       </defs>
       <use xlink:href="#NotoSansCJKjp-Regular-32"/>
       <use xlink:href="#NotoSansCJKjp-Regular-30" transform="translate(55.499985 0)"/>
       <use xlink:href="#NotoSansCJKjp-Regular-32" transform="translate(110.999969 0)"/>
       <use xlink:href="#NotoSansCJKjp-Regular-33" transform="translate(166.499954 0)"/>
      </g>
     </g>
    </g>
    <g id="xtick_9">
     <g id="line2d_9"/>
     <g id="text_9">
      <!-- 2024 -->
      <g style="fill: #526173" transform="translate(671.964757 348.235313) scale(0.11 -0.11)">
       <defs>
        <path id="NotoSansCJKjp-Regular-34" d="M 2176 0 
L 2726 0 
L 2726 1293 
L 3354 1293 
L 3354 1760 
L 2726 1760 
L 2726 4691 
L 2080 4691 
L 128 1677 
L 128 1293 
L 2176 1293 
L 2176 0 
z
M 2176 1760 
L 736 1760 
L 1805 3360 
C 1939 3590 2067 3827 2182 4051 
L 2208 4051 
C 2195 3814 2176 3430 2176 3200 
L 2176 1760 
z
" transform="scale(0.015625)"/>
       </defs>
       <use xlink:href="#NotoSansCJKjp-Regular-32"/>
       <use xlink:href="#NotoSansCJKjp-Regular-30" transform="translate(55.499985 0)"/>
       <use xlink:href="#NotoSansCJKjp-Regular-32" transform="translate(110.999969 0)"/>
       <use xlink:href="#NotoSansCJKjp-Regular-34" transform="translate(166.499954 0)"/>
      </g>
     </g>
    </g>
    <g id="xtick_10">
     <g id="line2d_10"/>
     <g id="text_10">
      <!-- 2025 -->
      <g style="fill: #526173" transform="translate(747.040485 348.235313) scale(0.11 -0.11)">
       <defs>
        <path id="NotoSansCJKjp-Regular-35" d="M 1677 -83 
C 2464 -83 3213 499 3213 1523 
C 3213 2560 2573 3021 1798 3021 
C 1517 3021 1306 2950 1094 2835 
L 1216 4192 
L 2982 4192 
L 2982 4691 
L 704 4691 
L 550 2502 
L 864 2304 
C 1133 2483 1331 2579 1645 2579 
C 2234 2579 2618 2182 2618 1510 
C 2618 826 2176 403 1619 403 
C 1075 403 730 653 467 922 
L 173 538 
C 493 224 941 -83 1677 -83 
z
" transform="scale(0.015625)"/>
       </defs>
       <use xlink:href="#NotoSansCJKjp-Regular-32"/>
       <use xlink:href="#NotoSansCJKjp-Regular-30" transform="translate(55.499985 0)"/>
       <use xlink:href="#NotoSansCJKjp-Regular-32" transform="translate(110.999969 0)"/>
       <use xlink:href="#NotoSansCJKjp-Regular-35" transform="translate(166.499954 0)"/>
      </g>
     </g>
    </g>
    <g id="text_11">
     <!-- 年度 -->
     <g style="fill: #526173" transform="translate(440.44 363.510312) scale(0.11 -0.11)">
      <defs>
       <path id="NotoSansCJKjp-Regular-5e74" d="M 307 1427 
L 307 966 
L 3277 966 
L 3277 -512 
L 3770 -512 
L 3770 966 
L 6106 966 
L 6106 1427 
L 3770 1427 
L 3770 2701 
L 5658 2701 
L 5658 3155 
L 3770 3155 
L 3770 4141 
L 5805 4141 
L 5805 4602 
L 1965 4602 
C 2074 4819 2170 5043 2259 5274 
L 1773 5402 
C 1466 4531 934 3699 320 3174 
C 442 3104 646 2944 736 2867 
C 1082 3200 1421 3642 1715 4141 
L 3277 4141 
L 3277 3155 
L 1363 3155 
L 1363 1427 
L 307 1427 
z
M 1843 1427 
L 1843 2701 
L 3277 2701 
L 3277 1427 
L 1843 1427 
z
" transform="scale(0.015625)"/>
       <path id="NotoSansCJKjp-Regular-5ea6" d="M 2470 4141 
L 2470 3584 
L 1440 3584 
L 1440 3187 
L 2470 3187 
L 2470 2125 
L 4960 2125 
L 4960 3187 
L 5997 3187 
L 5997 3584 
L 4960 3584 
L 4960 4141 
L 4486 4141 
L 4486 3584 
L 2931 3584 
L 2931 4141 
L 2470 4141 
z
M 4486 3187 
L 4486 2509 
L 2931 2509 
L 2931 3187 
L 4486 3187 
z
M 4851 1318 
C 4582 986 4211 717 3770 506 
C 3334 723 2970 992 2720 1318 
L 4851 1318 
z
M 1530 1715 
L 1530 1318 
L 2502 1318 
L 2259 1222 
C 2515 858 2861 550 3270 301 
C 2662 90 1978 -38 1280 -109 
C 1357 -211 1453 -397 1485 -512 
C 2291 -416 3072 -243 3757 45 
C 4365 -237 5088 -422 5869 -525 
C 5933 -403 6048 -211 6150 -109 
C 5466 -38 4819 96 4269 294 
C 4813 608 5261 1024 5549 1574 
L 5248 1734 
L 5165 1715 
L 1530 1715 
z
M 774 4742 
L 774 2893 
C 774 1965 730 659 198 -256 
C 314 -307 512 -435 595 -518 
C 1152 448 1235 1901 1235 2893 
L 1235 4307 
L 6035 4307 
L 6035 4742 
L 3635 4742 
L 3635 5376 
L 3142 5376 
L 3142 4742 
L 774 4742 
z
" transform="scale(0.015625)"/>
      </defs>
      <use xlink:href="#NotoSansCJKjp-Regular-5e74"/>
      <use xlink:href="#NotoSansCJKjp-Regular-5ea6" transform="translate(99.999985 0)"/>
     </g>
    </g>
   </g>
   <g id="matplotlib.axis_2">
    <g id="ytick_1">
     <g id="line2d_11">
      <path d="M 64.8 330.48 
L 838.08 330.48 
" clip-path="url(#pb2f8f73e01)" style="fill: none; stroke: #e7ecf0; stroke-width: 0.8; stroke-linecap: square"/>
     </g>
     <g id="line2d_12"/>
     <g id="text_12">
      <!-- 0 -->
      <g style="fill: #526173" transform="translate(49.695 334.857656) scale(0.11 -0.11)">
       <use xlink:href="#NotoSansCJKjp-Regular-30"/>
      </g>
     </g>
    </g>
    <g id="ytick_2">
     <g id="line2d_13">
      <path d="M 64.8 294.932571 
L 838.08 294.932571 
" clip-path="url(#pb2f8f73e01)" style="fill: none; stroke: #e7ecf0; stroke-width: 0.8; stroke-linecap: square"/>
     </g>
     <g id="line2d_14"/>
     <g id="text_13">
      <!-- 2 -->
      <g style="fill: #526173" transform="translate(49.695 299.310228) scale(0.11 -0.11)">
       <use xlink:href="#NotoSansCJKjp-Regular-32"/>
      </g>
     </g>
    </g>
    <g id="ytick_3">
     <g id="line2d_15">
      <path d="M 64.8 259.385143 
L 838.08 259.385143 
" clip-path="url(#pb2f8f73e01)" style="fill: none; stroke: #e7ecf0; stroke-width: 0.8; stroke-linecap: square"/>
     </g>
     <g id="line2d_16"/>
     <g id="text_14">
      <!-- 4 -->
      <g style="fill: #526173" transform="translate(49.695 263.762799) scale(0.11 -0.11)">
       <use xlink:href="#NotoSansCJKjp-Regular-34"/>
      </g>
     </g>
    </g>
    <g id="ytick_4">
     <g id="line2d_17">
      <path d="M 64.8 223.837714 
L 838.08 223.837714 
" clip-path="url(#pb2f8f73e01)" style="fill: none; stroke: #e7ecf0; stroke-width: 0.8; stroke-linecap: square"/>
     </g>
     <g id="line2d_18"/>
     <g id="text_15">
      <!-- 6 -->
      <g style="fill: #526173" transform="translate(49.695 228.215371) scale(0.11 -0.11)">
       <use xlink:href="#NotoSansCJKjp-Regular-36"/>
      </g>
     </g>
    </g>
    <g id="ytick_5">
     <g id="line2d_19">
      <path d="M 64.8 188.290286 
L 838.08 188.290286 
" clip-path="url(#pb2f8f73e01)" style="fill: none; stroke: #e7ecf0; stroke-width: 0.8; stroke-linecap: square"/>
     </g>
     <g id="line2d_20"/>
     <g id="text_16">
      <!-- 8 -->
      <g style="fill: #526173" transform="translate(49.695 192.667942) scale(0.11 -0.11)">
       <use xlink:href="#NotoSansCJKjp-Regular-38"/>
      </g>
     </g>
    </g>
    <g id="ytick_6">
     <g id="line2d_21">
      <path d="M 64.8 152.742857 
L 838.08 152.742857 
" clip-path="url(#pb2f8f73e01)" style="fill: none; stroke: #e7ecf0; stroke-width: 0.8; stroke-linecap: square"/>
     </g>
     <g id="line2d_22"/>
     <g id="text_17">
      <!-- 10 -->
      <g style="fill: #526173" transform="translate(43.59 157.120513) scale(0.11 -0.11)">
       <use xlink:href="#NotoSansCJKjp-Regular-31"/>
       <use xlink:href="#NotoSansCJKjp-Regular-30" transform="translate(55.499985 0)"/>
      </g>
     </g>
    </g>
    <g id="ytick_7">
     <g id="line2d_23">
      <path d="M 64.8 117.195429 
L 838.08 117.195429 
" clip-path="url(#pb2f8f73e01)" style="fill: none; stroke: #e7ecf0; stroke-width: 0.8; stroke-linecap: square"/>
     </g>
     <g id="line2d_24"/>
     <g id="text_18">
      <!-- 12 -->
      <g style="fill: #526173" transform="translate(43.59 121.573085) scale(0.11 -0.11)">
       <use xlink:href="#NotoSansCJKjp-Regular-31"/>
       <use xlink:href="#NotoSansCJKjp-Regular-32" transform="translate(55.499985 0)"/>
      </g>
     </g>
    </g>
    <g id="ytick_8">
     <g id="line2d_25">
      <path d="M 64.8 81.648 
L 838.08 81.648 
" clip-path="url(#pb2f8f73e01)" style="fill: none; stroke: #e7ecf0; stroke-width: 0.8; stroke-linecap: square"/>
     </g>
     <g id="line2d_26"/>
     <g id="text_19">
      <!-- 14 -->
      <g style="fill: #526173" transform="translate(43.59 86.025656) scale(0.11 -0.11)">
       <use xlink:href="#NotoSansCJKjp-Regular-31"/>
       <use xlink:href="#NotoSansCJKjp-Regular-34" transform="translate(55.499985 0)"/>
      </g>
     </g>
    </g>
    <g id="text_20">
     <!-- 売上高経常利益率（%） -->
     <g style="fill: #526173" transform="translate(37.070312 266.129156) rotate(-90) scale(0.11 -0.11)">
      <defs>
       <path id="NotoSansCJKjp-Regular-58f2" d="M 582 2714 
L 582 1485 
L 1043 1485 
L 1043 2272 
L 5344 2272 
L 5344 1485 
L 5824 1485 
L 5824 2714 
L 582 2714 
z
M 3680 1952 
L 3680 250 
C 3680 -256 3834 -390 4416 -390 
C 4531 -390 5222 -390 5357 -390 
C 5856 -390 5990 -179 6048 691 
C 5914 723 5715 800 5606 883 
C 5587 154 5542 45 5312 45 
C 5158 45 4582 45 4461 45 
C 4205 45 4160 77 4160 256 
L 4160 1952 
L 3680 1952 
z
M 2099 1952 
C 2010 838 1754 211 282 -109 
C 378 -205 506 -397 550 -518 
C 2150 -128 2490 640 2598 1952 
L 2099 1952 
z
M 2931 5376 
L 2931 4742 
L 416 4742 
L 416 4301 
L 2931 4301 
L 2931 3654 
L 1011 3654 
L 1011 3226 
L 5421 3226 
L 5421 3654 
L 3430 3654 
L 3430 4301 
L 5997 4301 
L 5997 4742 
L 3430 4742 
L 3430 5376 
L 2931 5376 
z
" transform="scale(0.015625)"/>
       <path id="NotoSansCJKjp-Regular-4e0a" d="M 2733 5280 
L 2733 275 
L 326 275 
L 326 -205 
L 6080 -205 
L 6080 275 
L 3238 275 
L 3238 2822 
L 5638 2822 
L 5638 3302 
L 3238 3302 
L 3238 5280 
L 2733 5280 
z
" transform="scale(0.015625)"/>
       <path id="NotoSansCJKjp-Regular-9ad8" d="M 1939 3635 
L 4448 3635 
L 4448 3021 
L 1939 3021 
L 1939 3635 
z
M 1478 3987 
L 1478 2662 
L 4928 2662 
L 4928 3987 
L 1478 3987 
z
M 2918 5382 
L 2918 4768 
L 416 4768 
L 416 4346 
L 5978 4346 
L 5978 4768 
L 3411 4768 
L 3411 5382 
L 2918 5382 
z
M 704 2266 
L 704 -512 
L 1171 -512 
L 1171 1856 
L 5261 1856 
L 5261 70 
C 5261 -19 5235 -45 5120 -51 
C 5018 -58 4653 -58 4237 -45 
C 4301 -179 4371 -365 4390 -499 
C 4922 -499 5267 -499 5478 -422 
C 5683 -346 5741 -205 5741 64 
L 5741 2266 
L 704 2266 
z
M 2406 1088 
L 3994 1088 
L 3994 435 
L 2406 435 
L 2406 1088 
z
M 1984 1440 
L 1984 -243 
L 2406 -243 
L 2406 83 
L 4422 83 
L 4422 1440 
L 1984 1440 
z
" transform="scale(0.015625)"/>
       <path id="NotoSansCJKjp-Regular-7d4c" d="M 1907 1651 
C 2074 1274 2240 787 2304 467 
L 2669 595 
C 2605 909 2438 1395 2259 1760 
L 1907 1651 
z
M 582 1715 
C 506 1152 378 582 160 192 
C 269 154 454 64 544 6 
C 749 416 909 1037 992 1645 
L 582 1715 
z
M 5229 4621 
C 5018 4192 4710 3821 4346 3514 
C 3994 3827 3712 4198 3520 4621 
L 5229 4621 
z
M 2662 5043 
L 2662 4621 
L 3341 4621 
L 3072 4531 
C 3296 4032 3603 3603 3987 3245 
C 3546 2950 3046 2726 2528 2586 
C 2624 2483 2746 2304 2803 2182 
C 3360 2362 3891 2605 4358 2938 
C 4813 2605 5344 2362 5939 2202 
C 6003 2323 6138 2502 6234 2598 
C 5664 2726 5158 2938 4730 3226 
C 5229 3661 5626 4218 5875 4922 
L 5555 5062 
L 5459 5043 
L 2662 5043 
z
M 4134 2522 
L 4134 1594 
L 2912 1594 
L 2912 1165 
L 4134 1165 
L 4134 109 
L 2496 109 
L 2496 -320 
L 6157 -320 
L 6157 109 
L 4608 109 
L 4608 1165 
L 5875 1165 
L 5875 1594 
L 4608 1594 
L 4608 2522 
L 4134 2522 
z
M 218 2509 
L 262 2074 
L 1267 2138 
L 1267 -525 
L 1696 -525 
L 1696 2163 
L 2202 2195 
C 2259 2054 2298 1926 2323 1818 
L 2688 1978 
C 2598 2330 2342 2880 2080 3296 
L 1741 3155 
C 1850 2982 1952 2778 2042 2579 
L 1088 2541 
C 1523 3104 2010 3853 2374 4461 
L 1971 4646 
C 1798 4301 1568 3891 1312 3494 
C 1216 3622 1082 3770 941 3917 
C 1178 4269 1453 4781 1670 5203 
L 1248 5376 
C 1114 5018 883 4538 678 4179 
L 486 4346 
L 243 4026 
C 538 3763 870 3398 1069 3117 
C 928 2899 781 2694 646 2522 
L 218 2509 
z
" transform="scale(0.015625)"/>
       <path id="NotoSansCJKjp-Regular-5e38" d="M 2003 3142 
L 4429 3142 
L 4429 2515 
L 2003 2515 
L 2003 3142 
z
M 973 1619 
L 973 -224 
L 1453 -224 
L 1453 1184 
L 3034 1184 
L 3034 -512 
L 3526 -512 
L 3526 1184 
L 5018 1184 
L 5018 282 
C 5018 205 4992 186 4890 173 
C 4787 173 4448 173 4064 186 
C 4128 58 4205 -122 4230 -250 
C 4730 -250 5050 -250 5254 -179 
C 5453 -109 5504 26 5504 275 
L 5504 1619 
L 3526 1619 
L 3526 2150 
L 4915 2150 
L 4915 3507 
L 1542 3507 
L 1542 2150 
L 3034 2150 
L 3034 1619 
L 973 1619 
z
M 1075 5139 
C 1267 4922 1478 4602 1581 4384 
L 550 4384 
L 550 3008 
L 1011 3008 
L 1011 3962 
L 5421 3962 
L 5421 3008 
L 5894 3008 
L 5894 4384 
L 3482 4384 
L 3482 5382 
L 2995 5382 
L 2995 4384 
L 1658 4384 
L 2048 4570 
C 1939 4774 1715 5088 1510 5318 
L 1075 5139 
z
M 4883 5325 
C 4755 5094 4518 4755 4339 4544 
L 4736 4384 
C 4922 4576 5165 4870 5382 5152 
L 4883 5325 
z
" transform="scale(0.015625)"/>
       <path id="NotoSansCJKjp-Regular-5229" d="M 3795 4614 
L 3795 1082 
L 4262 1082 
L 4262 4614 
L 3795 4614 
z
M 5363 5254 
L 5363 128 
C 5363 6 5318 -32 5197 -38 
C 5069 -38 4672 -45 4218 -32 
C 4288 -166 4365 -384 4397 -518 
C 4986 -518 5344 -506 5555 -429 
C 5754 -346 5843 -205 5843 128 
L 5843 5254 
L 5363 5254 
z
M 2931 5338 
C 2330 5075 1216 4851 269 4717 
C 333 4614 397 4454 422 4339 
C 819 4390 1242 4454 1658 4538 
L 1658 3450 
L 320 3450 
L 320 3002 
L 1555 3002 
C 1248 2202 685 1312 173 832 
C 256 710 384 512 435 378 
C 870 813 1318 1542 1658 2272 
L 1658 -499 
L 2131 -499 
L 2131 2035 
C 2458 1728 2874 1318 3066 1107 
L 3341 1510 
C 3155 1677 2432 2304 2131 2534 
L 2131 3002 
L 3366 3002 
L 3366 3450 
L 2131 3450 
L 2131 4634 
C 2566 4730 2970 4845 3290 4973 
L 2931 5338 
z
" transform="scale(0.015625)"/>
       <path id="NotoSansCJKjp-Regular-76ca" d="M 4640 5389 
C 4454 5011 4115 4480 3853 4154 
L 4192 4032 
L 2234 4032 
L 2522 4179 
C 2381 4506 2074 4986 1773 5350 
L 1370 5165 
C 1632 4826 1914 4365 2061 4032 
L 454 4032 
L 454 3597 
L 2061 3597 
C 1619 2810 934 2131 166 1696 
C 282 1606 467 1427 544 1331 
C 762 1472 979 1632 1184 1811 
L 1184 115 
L 288 115 
L 288 -320 
L 6118 -320 
L 6118 115 
L 5254 115 
L 5254 1830 
C 5459 1664 5664 1530 5875 1414 
C 5958 1536 6106 1715 6214 1805 
C 5472 2157 4730 2854 4275 3597 
L 5958 3597 
L 5958 4032 
L 4282 4032 
C 4550 4346 4877 4813 5133 5229 
L 4640 5389 
z
M 1619 115 
L 1619 1517 
L 2374 1517 
L 2374 115 
L 1619 115 
z
M 2822 115 
L 2822 1517 
L 3584 1517 
L 3584 115 
L 2822 115 
z
M 4032 115 
L 4032 1517 
L 4800 1517 
L 4800 115 
L 4032 115 
z
M 2611 3597 
L 3763 3597 
C 4102 2976 4589 2381 5126 1933 
L 1318 1933 
C 1824 2394 2278 2963 2611 3597 
z
" transform="scale(0.015625)"/>
       <path id="NotoSansCJKjp-Regular-7387" d="M 5376 4038 
C 5139 3782 4704 3437 4384 3226 
L 4736 3014 
C 5056 3226 5472 3520 5798 3821 
L 5376 4038 
z
M 320 1997 
L 557 1613 
C 986 1798 1517 2048 2022 2291 
L 1933 2656 
C 1338 2406 730 2150 320 1997 
z
M 544 3680 
C 902 3482 1344 3174 1555 2957 
L 1888 3258 
C 1670 3469 1222 3757 864 3949 
L 544 3680 
z
M 4262 2458 
C 4768 2202 5408 1811 5715 1542 
L 6067 1850 
C 5734 2112 5094 2490 4595 2733 
L 4262 2458 
z
M 3526 2707 
C 3654 2566 3782 2400 3904 2227 
L 2810 2176 
C 3264 2618 3763 3168 4147 3642 
L 3770 3827 
C 3590 3571 3347 3270 3091 2976 
C 2957 3098 2784 3226 2598 3347 
C 2810 3578 3046 3878 3251 4154 
L 3110 4211 
L 5882 4211 
L 5882 4659 
L 3424 4659 
L 3424 5376 
L 2938 5376 
L 2938 4659 
L 538 4659 
L 538 4211 
L 2771 4211 
C 2643 4000 2470 3750 2310 3546 
L 2131 3654 
L 1894 3373 
C 2202 3174 2579 2906 2822 2682 
C 2650 2490 2470 2310 2304 2150 
L 1811 2131 
L 1882 1715 
L 4128 1882 
C 4211 1747 4275 1626 4320 1517 
L 4691 1709 
C 4550 2035 4192 2515 3872 2874 
L 3526 2707 
z
M 346 1222 
L 346 774 
L 2938 774 
L 2938 -531 
L 3424 -531 
L 3424 774 
L 6061 774 
L 6061 1222 
L 3424 1222 
L 3424 1722 
L 2938 1722 
L 2938 1222 
L 346 1222 
z
" transform="scale(0.015625)"/>
       <path id="NotoSansCJKjp-Regular-ff08" d="M 4448 2432 
C 4448 1184 4954 166 5722 -614 
L 6106 -416 
C 5370 346 4915 1293 4915 2432 
C 4915 3571 5370 4518 6106 5280 
L 5722 5478 
C 4954 4698 4448 3680 4448 2432 
z
" transform="scale(0.015625)"/>
       <path id="NotoSansCJKjp-Regular-25" d="M 1312 1818 
C 1958 1818 2381 2362 2381 3309 
C 2381 4243 1958 4774 1312 4774 
C 672 4774 250 4243 250 3309 
C 250 2362 672 1818 1312 1818 
z
M 1312 2176 
C 941 2176 691 2560 691 3309 
C 691 4058 941 4416 1312 4416 
C 1683 4416 1933 4058 1933 3309 
C 1933 2560 1683 2176 1312 2176 
z
M 1446 -83 
L 1843 -83 
L 4435 4774 
L 4038 4774 
L 1446 -83 
z
M 4582 -83 
C 5222 -83 5645 454 5645 1402 
C 5645 2342 5222 2874 4582 2874 
C 3942 2874 3520 2342 3520 1402 
C 3520 454 3942 -83 4582 -83 
z
M 4582 275 
C 4211 275 3955 653 3955 1402 
C 3955 2150 4211 2515 4582 2515 
C 4947 2515 5210 2150 5210 1402 
C 5210 653 4947 275 4582 275 
z
" transform="scale(0.015625)"/>
       <path id="NotoSansCJKjp-Regular-ff09" d="M 1952 2432 
C 1952 3680 1446 4698 678 5478 
L 294 5280 
C 1030 4518 1485 3571 1485 2432 
C 1485 1293 1030 346 294 -416 
L 678 -614 
C 1446 166 1952 1184 1952 2432 
z
" transform="scale(0.015625)"/>
      </defs>
      <use xlink:href="#NotoSansCJKjp-Regular-58f2"/>
      <use xlink:href="#NotoSansCJKjp-Regular-4e0a" transform="translate(99.999985 0)"/>
      <use xlink:href="#NotoSansCJKjp-Regular-9ad8" transform="translate(199.999969 0)"/>
      <use xlink:href="#NotoSansCJKjp-Regular-7d4c" transform="translate(299.999954 0)"/>
      <use xlink:href="#NotoSansCJKjp-Regular-5e38" transform="translate(399.999939 0)"/>
      <use xlink:href="#NotoSansCJKjp-Regular-5229" transform="translate(499.999924 0)"/>
      <use xlink:href="#NotoSansCJKjp-Regular-76ca" transform="translate(599.999908 0)"/>
      <use xlink:href="#NotoSansCJKjp-Regular-7387" transform="translate(699.999893 0)"/>
      <use xlink:href="#NotoSansCJKjp-Regular-ff08" transform="translate(799.999878 0)"/>
      <use xlink:href="#NotoSansCJKjp-Regular-25" transform="translate(899.999863 0)"/>
      <use xlink:href="#NotoSansCJKjp-Regular-ff09" transform="translate(992.099854 0)"/>
     </g>
    </g>
   </g>
   <g id="line2d_27">
    <path d="M 83.568932 184.412135 
L 158.64466 194.345077 
L 233.720388 185.077293 
L 308.796117 195.063989 
L 383.871845 206.50507 
L 458.947573 187.838106 
L 534.023301 173.909774 
L 609.099029 151.438968 
L 684.174757 141.319986 
L 759.250485 122.200391 
" clip-path="url(#pb2f8f73e01)" style="fill: none; stroke: #007c83; stroke-width: 2.5; stroke-linecap: square"/>
    <defs>
     <path id="m365f17b58c" d="M 0 2.5 
C 0.663008 2.5 1.29895 2.236584 1.767767 1.767767 
C 2.236584 1.29895 2.5 0.663008 2.5 0 
C 2.5 -0.663008 2.236584 -1.29895 1.767767 -1.767767 
C 1.29895 -2.236584 0.663008 -2.5 0 -2.5 
C -0.663008 -2.5 -1.29895 -2.236584 -1.767767 -1.767767 
C -2.236584 -1.29895 -2.5 -0.663008 -2.5 0 
C -2.5 0.663008 -2.236584 1.29895 -1.767767 1.767767 
C -1.29895 2.236584 -0.663008 2.5 0 2.5 
z
" style="stroke: #ffffff; stroke-width: 0.7"/>
    </defs>
    <g clip-path="url(#pb2f8f73e01)">
     <use xlink:href="#m365f17b58c" x="83.568932" y="184.412135" style="fill: #007c83; stroke: #ffffff; stroke-width: 0.7"/>
     <use xlink:href="#m365f17b58c" x="158.64466" y="194.345077" style="fill: #007c83; stroke: #ffffff; stroke-width: 0.7"/>
     <use xlink:href="#m365f17b58c" x="233.720388" y="185.077293" style="fill: #007c83; stroke: #ffffff; stroke-width: 0.7"/>
     <use xlink:href="#m365f17b58c" x="308.796117" y="195.063989" style="fill: #007c83; stroke: #ffffff; stroke-width: 0.7"/>
     <use xlink:href="#m365f17b58c" x="383.871845" y="206.50507" style="fill: #007c83; stroke: #ffffff; stroke-width: 0.7"/>
     <use xlink:href="#m365f17b58c" x="458.947573" y="187.838106" style="fill: #007c83; stroke: #ffffff; stroke-width: 0.7"/>
     <use xlink:href="#m365f17b58c" x="534.023301" y="173.909774" style="fill: #007c83; stroke: #ffffff; stroke-width: 0.7"/>
     <use xlink:href="#m365f17b58c" x="609.099029" y="151.438968" style="fill: #007c83; stroke: #ffffff; stroke-width: 0.7"/>
     <use xlink:href="#m365f17b58c" x="684.174757" y="141.319986" style="fill: #007c83; stroke: #ffffff; stroke-width: 0.7"/>
     <use xlink:href="#m365f17b58c" x="759.250485" y="122.200391" style="fill: #007c83; stroke: #ffffff; stroke-width: 0.7"/>
    </g>
   </g>
   <g id="line2d_28">
    <path d="M 83.568932 264.572585 
L 158.64466 255.708572 
L 233.720388 252.482594 
L 308.796117 262.817188 
L 383.871845 266.614165 
L 458.947573 251.492763 
L 534.023301 243.434713 
L 609.099029 239.609027 
L 684.174757 237.532422 
L 759.250485 228.941442 
" clip-path="url(#pb2f8f73e01)" style="fill: none; stroke-dasharray: 9.25,4; stroke-dashoffset: 0; stroke: #5864a2; stroke-width: 2.5"/>
    <defs>
     <path id="md7751c197f" d="M -0 3.535534 
L 3.535534 0 
L 0 -3.535534 
L -3.535534 -0 
z
" style="stroke: #ffffff; stroke-width: 0.7; stroke-linejoin: miter"/>
    </defs>
    <g clip-path="url(#pb2f8f73e01)">
     <use xlink:href="#md7751c197f" x="83.568932" y="264.572585" style="fill: #5864a2; stroke: #ffffff; stroke-width: 0.7; stroke-linejoin: miter"/>
     <use xlink:href="#md7751c197f" x="158.64466" y="255.708572" style="fill: #5864a2; stroke: #ffffff; stroke-width: 0.7; stroke-linejoin: miter"/>
     <use xlink:href="#md7751c197f" x="233.720388" y="252.482594" style="fill: #5864a2; stroke: #ffffff; stroke-width: 0.7; stroke-linejoin: miter"/>
     <use xlink:href="#md7751c197f" x="308.796117" y="262.817188" style="fill: #5864a2; stroke: #ffffff; stroke-width: 0.7; stroke-linejoin: miter"/>
     <use xlink:href="#md7751c197f" x="383.871845" y="266.614165" style="fill: #5864a2; stroke: #ffffff; stroke-width: 0.7; stroke-linejoin: miter"/>
     <use xlink:href="#md7751c197f" x="458.947573" y="251.492763" style="fill: #5864a2; stroke: #ffffff; stroke-width: 0.7; stroke-linejoin: miter"/>
     <use xlink:href="#md7751c197f" x="534.023301" y="243.434713" style="fill: #5864a2; stroke: #ffffff; stroke-width: 0.7; stroke-linejoin: miter"/>
     <use xlink:href="#md7751c197f" x="609.099029" y="239.609027" style="fill: #5864a2; stroke: #ffffff; stroke-width: 0.7; stroke-linejoin: miter"/>
     <use xlink:href="#md7751c197f" x="684.174757" y="237.532422" style="fill: #5864a2; stroke: #ffffff; stroke-width: 0.7; stroke-linejoin: miter"/>
     <use xlink:href="#md7751c197f" x="759.250485" y="228.941442" style="fill: #5864a2; stroke: #ffffff; stroke-width: 0.7; stroke-linejoin: miter"/>
    </g>
   </g>
   <g id="line2d_29">
    <path d="M 83.568932 273.455027 
L 158.64466 268.901541 
L 233.720388 272.171311 
L 308.796117 280.548011 
L 383.871845 284.751506 
L 458.947573 275.081986 
L 534.023301 270.942439 
L 609.099029 267.576174 
L 684.174757 263.354803 
L 759.250485 259.859429 
" clip-path="url(#pb2f8f73e01)" style="fill: none; stroke: #bf7718; stroke-width: 2.5; stroke-linecap: square"/>
    <defs>
     <path id="mff83e5ef9d" d="M -2.5 2.5 
L 2.5 2.5 
L 2.5 -2.5 
L -2.5 -2.5 
z
" style="stroke: #ffffff; stroke-width: 0.7; stroke-linejoin: miter"/>
    </defs>
    <g clip-path="url(#pb2f8f73e01)">
     <use xlink:href="#mff83e5ef9d" x="83.568932" y="273.455027" style="fill: #bf7718; stroke: #ffffff; stroke-width: 0.7; stroke-linejoin: miter"/>
     <use xlink:href="#mff83e5ef9d" x="158.64466" y="268.901541" style="fill: #bf7718; stroke: #ffffff; stroke-width: 0.7; stroke-linejoin: miter"/>
     <use xlink:href="#mff83e5ef9d" x="233.720388" y="272.171311" style="fill: #bf7718; stroke: #ffffff; stroke-width: 0.7; stroke-linejoin: miter"/>
     <use xlink:href="#mff83e5ef9d" x="308.796117" y="280.548011" style="fill: #bf7718; stroke: #ffffff; stroke-width: 0.7; stroke-linejoin: miter"/>
     <use xlink:href="#mff83e5ef9d" x="383.871845" y="284.751506" style="fill: #bf7718; stroke: #ffffff; stroke-width: 0.7; stroke-linejoin: miter"/>
     <use xlink:href="#mff83e5ef9d" x="458.947573" y="275.081986" style="fill: #bf7718; stroke: #ffffff; stroke-width: 0.7; stroke-linejoin: miter"/>
     <use xlink:href="#mff83e5ef9d" x="534.023301" y="270.942439" style="fill: #bf7718; stroke: #ffffff; stroke-width: 0.7; stroke-linejoin: miter"/>
     <use xlink:href="#mff83e5ef9d" x="609.099029" y="267.576174" style="fill: #bf7718; stroke: #ffffff; stroke-width: 0.7; stroke-linejoin: miter"/>
     <use xlink:href="#mff83e5ef9d" x="684.174757" y="263.354803" style="fill: #bf7718; stroke: #ffffff; stroke-width: 0.7; stroke-linejoin: miter"/>
     <use xlink:href="#mff83e5ef9d" x="759.250485" y="259.859429" style="fill: #bf7718; stroke: #ffffff; stroke-width: 0.7; stroke-linejoin: miter"/>
    </g>
   </g>
   <g id="patch_4">
    <path d="M 64.8 330.48 
L 64.8 81.648 
" style="fill: none; stroke: #ccd5dc; stroke-width: 0.8; stroke-linejoin: miter; stroke-linecap: square"/>
   </g>
   <g id="patch_5">
    <path d="M 64.8 330.48 
L 838.08 330.48 
" style="fill: none; stroke: #ccd5dc; stroke-width: 0.8; stroke-linejoin: miter; stroke-linecap: square"/>
   </g>
   <g id="patch_6">
    <path d="M 771.763379 259.859429 
Q 766.507414 259.859429 761.251449 259.859429 
" style="fill: none; stroke: #bf7718; stroke-width: 0.8; stroke-linecap: round"/>
   </g>
   <g id="text_21">
    <!-- 3.97% -->
    <g style="fill: #bf7718" transform="translate(775.767146 263.065757) scale(0.11 -0.11)">
     <defs>
      <path id="NotoSansCJKjp-Bold-33" d="M 1747 -90 
C 2656 -90 3418 410 3418 1280 
C 3418 1907 3008 2304 2477 2451 
L 2477 2483 
C 2976 2682 3264 3053 3264 3565 
C 3264 4378 2643 4826 1728 4826 
C 1171 4826 717 4602 307 4250 
L 794 3667 
C 1069 3930 1344 4083 1683 4083 
C 2086 4083 2317 3866 2317 3494 
C 2317 3066 2035 2771 1171 2771 
L 1171 2093 
C 2195 2093 2470 1805 2470 1338 
C 2470 915 2144 678 1664 678 
C 1229 678 890 890 608 1165 
L 166 570 
C 499 192 1005 -90 1747 -90 
z
" transform="scale(0.015625)"/>
      <path id="NotoSansCJKjp-Bold-2e" d="M 1043 -90 
C 1376 -90 1626 179 1626 525 
C 1626 877 1376 1139 1043 1139 
C 704 1139 454 877 454 525 
C 454 179 704 -90 1043 -90 
z
" transform="scale(0.015625)"/>
      <path id="NotoSansCJKjp-Bold-39" d="M 1632 -90 
C 2573 -90 3450 685 3450 2477 
C 3450 4122 2650 4826 1747 4826 
C 934 4826 256 4218 256 3245 
C 256 2240 819 1754 1613 1754 
C 1933 1754 2336 1946 2586 2266 
C 2541 1082 2106 678 1581 678 
C 1299 678 1005 826 832 1018 
L 333 448 
C 614 160 1043 -90 1632 -90 
z
M 2573 2938 
C 2342 2566 2048 2426 1792 2426 
C 1382 2426 1120 2688 1120 3245 
C 1120 3827 1408 4115 1760 4115 
C 2163 4115 2490 3795 2573 2938 
z
" transform="scale(0.015625)"/>
      <path id="NotoSansCJKjp-Bold-37" d="M 1190 0 
L 2138 0 
C 2221 1850 2368 2822 3469 4166 
L 3469 4742 
L 320 4742 
L 320 3949 
L 2451 3949 
C 1549 2694 1274 1645 1190 0 
z
" transform="scale(0.015625)"/>
      <path id="NotoSansCJKjp-Bold-25" d="M 1357 1824 
C 2035 1824 2515 2381 2515 3334 
C 2515 4282 2035 4826 1357 4826 
C 678 4826 205 4282 205 3334 
C 205 2381 678 1824 1357 1824 
z
M 1357 2355 
C 1082 2355 864 2637 864 3334 
C 864 4026 1082 4294 1357 4294 
C 1632 4294 1850 4026 1850 3334 
C 1850 2637 1632 2355 1357 2355 
z
M 1510 -90 
L 2074 -90 
L 4646 4826 
L 4090 4826 
L 1510 -90 
z
M 4806 -90 
C 5478 -90 5958 467 5958 1421 
C 5958 2368 5478 2918 4806 2918 
C 4128 2918 3648 2368 3648 1421 
C 3648 467 4128 -90 4806 -90 
z
M 4806 448 
C 4525 448 4314 730 4314 1421 
C 4314 2125 4525 2381 4806 2381 
C 5082 2381 5293 2125 5293 1421 
C 5293 730 5082 448 4806 448 
z
" transform="scale(0.015625)"/>
     </defs>
     <use xlink:href="#NotoSansCJKjp-Bold-33"/>
     <use xlink:href="#NotoSansCJKjp-Bold-2e" transform="translate(58.999985 0)"/>
     <use xlink:href="#NotoSansCJKjp-Bold-39" transform="translate(91.499969 0)"/>
     <use xlink:href="#NotoSansCJKjp-Bold-37" transform="translate(150.499954 0)"/>
     <use xlink:href="#NotoSansCJKjp-Bold-25" transform="translate(209.499939 0)"/>
    </g>
   </g>
   <g id="patch_7">
    <path d="M 771.763379 228.941442 
Q 766.507414 228.941442 761.251449 228.941442 
" style="fill: none; stroke: #5864a2; stroke-width: 0.8; stroke-linecap: round"/>
   </g>
   <g id="text_22">
    <!-- 5.71% -->
    <g style="fill: #5864a2" transform="translate(775.767146 232.14777) scale(0.11 -0.11)">
     <defs>
      <path id="NotoSansCJKjp-Bold-35" d="M 1773 -90 
C 2637 -90 3424 518 3424 1574 
C 3424 2605 2765 3072 1965 3072 
C 1747 3072 1581 3034 1395 2944 
L 1485 3949 
L 3206 3949 
L 3206 4742 
L 672 4742 
L 544 2438 
L 973 2163 
C 1254 2342 1408 2406 1683 2406 
C 2157 2406 2483 2099 2483 1549 
C 2483 992 2138 678 1645 678 
C 1210 678 870 896 602 1158 
L 166 557 
C 525 205 1018 -90 1773 -90 
z
" transform="scale(0.015625)"/>
      <path id="NotoSansCJKjp-Bold-31" d="M 525 0 
L 3373 0 
L 3373 768 
L 2483 768 
L 2483 4742 
L 1786 4742 
C 1485 4550 1165 4429 685 4346 
L 685 3757 
L 1549 3757 
L 1549 768 
L 525 768 
L 525 0 
z
" transform="scale(0.015625)"/>
     </defs>
     <use xlink:href="#NotoSansCJKjp-Bold-35"/>
     <use xlink:href="#NotoSansCJKjp-Bold-2e" transform="translate(58.999985 0)"/>
     <use xlink:href="#NotoSansCJKjp-Bold-37" transform="translate(91.499969 0)"/>
     <use xlink:href="#NotoSansCJKjp-Bold-31" transform="translate(150.499954 0)"/>
     <use xlink:href="#NotoSansCJKjp-Bold-25" transform="translate(209.499939 0)"/>
    </g>
   </g>
   <g id="patch_8">
    <path d="M 771.765008 122.200391 
Q 766.508359 122.200391 761.251709 122.200391 
" style="fill: none; stroke: #007c83; stroke-width: 0.8; stroke-linecap: round"/>
   </g>
   <g id="text_23">
    <!-- 11.72% -->
    <g style="fill: #007c83" transform="translate(775.767146 125.406719) scale(0.11 -0.11)">
     <defs>
      <path id="NotoSansCJKjp-Bold-32" d="M 275 0 
L 3450 0 
L 3450 794 
L 2426 794 
C 2202 794 1888 768 1645 736 
C 2509 1587 3226 2509 3226 3366 
C 3226 4250 2630 4826 1734 4826 
C 1088 4826 666 4576 224 4102 
L 749 3597 
C 986 3859 1267 4083 1613 4083 
C 2067 4083 2323 3789 2323 3322 
C 2323 2586 1568 1696 275 544 
L 275 0 
z
" transform="scale(0.015625)"/>
     </defs>
     <use xlink:href="#NotoSansCJKjp-Bold-31"/>
     <use xlink:href="#NotoSansCJKjp-Bold-31" transform="translate(58.999985 0)"/>
     <use xlink:href="#NotoSansCJKjp-Bold-2e" transform="translate(117.999969 0)"/>
     <use xlink:href="#NotoSansCJKjp-Bold-37" transform="translate(150.499954 0)"/>
     <use xlink:href="#NotoSansCJKjp-Bold-32" transform="translate(209.499939 0)"/>
     <use xlink:href="#NotoSansCJKjp-Bold-25" transform="translate(268.499924 0)"/>
    </g>
   </g>
   <g id="legend_1">
    <g id="line2d_30">
     <path d="M 73.8 57.782575 
L 83.8 57.782575 
L 93.8 57.782575 
" style="fill: none; stroke: #007c83; stroke-width: 2.5; stroke-linecap: square"/>
     <g>
      <use xlink:href="#m365f17b58c" x="83.8" y="57.782575" style="fill: #007c83; stroke: #ffffff; stroke-width: 0.7"/>
     </g>
    </g>
    <g id="text_24">
     <!-- 10億円以上 -->
     <g style="fill: #25374b" transform="translate(101.8 61.282575) scale(0.1 -0.1)">
      <defs>
       <path id="NotoSansCJKjp-Regular-5104" d="M 2874 1990 
L 5171 1990 
L 5171 1574 
L 2874 1574 
L 2874 1990 
z
M 2874 2694 
L 5171 2694 
L 5171 2291 
L 2874 2291 
L 2874 2694 
z
M 2368 909 
C 2240 557 2003 147 1702 -90 
L 2054 -346 
C 2374 -70 2598 378 2752 749 
L 2368 909 
z
M 3034 915 
L 3034 58 
C 3034 -378 3162 -486 3699 -486 
C 3808 -486 4461 -486 4576 -486 
C 4973 -486 5101 -352 5146 218 
C 5024 250 4845 307 4755 378 
C 4736 -45 4698 -96 4525 -96 
C 4384 -96 3846 -96 3750 -96 
C 3520 -96 3482 -77 3482 58 
L 3482 915 
L 3034 915 
z
M 4960 755 
C 5306 429 5683 -38 5843 -352 
L 6227 -115 
C 6061 198 5677 646 5325 960 
L 4960 755 
z
M 2746 4358 
C 2854 4173 2970 3930 3021 3750 
L 1875 3750 
L 1875 3360 
L 6163 3360 
L 6163 3750 
L 4947 3750 
C 5056 3930 5184 4166 5312 4397 
L 5062 4461 
L 5946 4461 
L 5946 4826 
L 4224 4826 
L 4224 5338 
L 3750 5338 
L 3750 4826 
L 2170 4826 
L 2170 4461 
L 4813 4461 
C 4742 4256 4614 3968 4518 3776 
L 4608 3750 
L 3258 3750 
L 3462 3802 
C 3418 3981 3283 4256 3149 4454 
L 2746 4358 
z
M 3482 1120 
C 3789 934 4141 659 4307 454 
L 4621 723 
C 4480 890 4218 1088 3962 1248 
L 5645 1248 
L 5645 3021 
L 2419 3021 
L 2419 1248 
L 3642 1248 
L 3482 1120 
z
M 1728 5357 
C 1357 4403 749 3456 109 2854 
C 192 2746 326 2490 378 2381 
C 602 2611 826 2874 1037 3162 
L 1037 -506 
L 1491 -506 
L 1491 3853 
C 1754 4282 1984 4749 2176 5216 
L 1728 5357 
z
" transform="scale(0.015625)"/>
       <path id="NotoSansCJKjp-Regular-5186" d="M 5376 4467 
L 5376 2579 
L 3424 2579 
L 3424 4467 
L 5376 4467 
z
M 576 4941 
L 576 -518 
L 1062 -518 
L 1062 2106 
L 5376 2106 
L 5376 128 
C 5376 13 5338 -26 5216 -32 
C 5088 -32 4678 -38 4237 -26 
C 4307 -154 4390 -371 4416 -506 
C 4998 -506 5357 -499 5568 -422 
C 5786 -339 5862 -186 5862 128 
L 5862 4941 
L 576 4941 
z
M 1062 2579 
L 1062 4467 
L 2944 4467 
L 2944 2579 
L 1062 2579 
z
" transform="scale(0.015625)"/>
       <path id="NotoSansCJKjp-Regular-4ee5" d="M 2336 4371 
C 2739 3898 3155 3238 3322 2797 
L 3782 3040 
C 3603 3482 3187 4109 2765 4576 
L 2336 4371 
z
M 1005 5030 
L 1114 1043 
C 781 902 480 781 230 685 
L 403 186 
C 1107 493 2086 922 2976 1325 
L 2867 1792 
L 1600 1248 
L 1498 5050 
L 1005 5030 
z
M 4954 5050 
C 4672 2259 3994 698 1779 -115 
C 1894 -218 2093 -422 2163 -531 
C 3168 -109 3872 448 4371 1210 
C 4915 634 5510 -45 5805 -493 
L 6214 -115 
C 5882 358 5203 1075 4634 1658 
C 5075 2522 5325 3616 5478 4998 
L 4954 5050 
z
" transform="scale(0.015625)"/>
      </defs>
      <use xlink:href="#NotoSansCJKjp-Regular-31"/>
      <use xlink:href="#NotoSansCJKjp-Regular-30" transform="translate(55.499985 0)"/>
      <use xlink:href="#NotoSansCJKjp-Regular-5104" transform="translate(110.999969 0)"/>
      <use xlink:href="#NotoSansCJKjp-Regular-5186" transform="translate(210.999954 0)"/>
      <use xlink:href="#NotoSansCJKjp-Regular-4ee5" transform="translate(310.999939 0)"/>
      <use xlink:href="#NotoSansCJKjp-Regular-4e0a" transform="translate(410.999924 0)"/>
     </g>
    </g>
    <g id="line2d_31">
     <path d="M 172.9 57.782575 
L 182.9 57.782575 
L 192.9 57.782575 
" style="fill: none; stroke-dasharray: 9.25,4; stroke-dashoffset: 0; stroke: #5864a2; stroke-width: 2.5"/>
     <g>
      <use xlink:href="#md7751c197f" x="182.9" y="57.782575" style="fill: #5864a2; stroke: #ffffff; stroke-width: 0.7; stroke-linejoin: miter"/>
     </g>
    </g>
    <g id="text_25">
     <!-- 1億円以上10億円未満 -->
     <g style="fill: #25374b" transform="translate(200.9 61.282575) scale(0.1 -0.1)">
      <defs>
       <path id="NotoSansCJKjp-Regular-672a" d="M 2938 5370 
L 2938 4326 
L 851 4326 
L 851 3853 
L 2938 3853 
L 2938 2746 
L 397 2746 
L 397 2272 
L 2662 2272 
C 2086 1446 1114 646 218 250 
C 326 154 486 -32 570 -154 
C 1414 282 2317 1043 2938 1894 
L 2938 -512 
L 3443 -512 
L 3443 1920 
C 4070 1062 4979 269 5830 -160 
C 5914 -32 6074 160 6182 256 
C 5286 646 4307 1446 3718 2272 
L 6029 2272 
L 6029 2746 
L 3443 2746 
L 3443 3853 
L 5594 3853 
L 5594 4326 
L 3443 4326 
L 3443 5370 
L 2938 5370 
z
" transform="scale(0.015625)"/>
       <path id="NotoSansCJKjp-Regular-6e80" d="M 550 4966 
C 947 4781 1421 4467 1645 4243 
L 1939 4627 
C 1702 4845 1222 5133 832 5306 
L 550 4966 
z
M 237 3187 
C 653 3034 1158 2765 1402 2554 
L 1677 2963 
C 1414 3168 902 3418 493 3552 
L 237 3187 
z
M 410 -134 
L 832 -429 
C 1158 166 1542 966 1824 1638 
L 1453 1926 
C 1133 1203 710 358 410 -134 
z
M 2067 2592 
L 2067 -506 
L 2502 -506 
L 2502 2170 
L 3770 2170 
L 3770 864 
L 3251 864 
L 3251 1824 
L 2931 1824 
L 2931 102 
L 3251 102 
L 3251 493 
L 4685 493 
L 4685 198 
L 4998 198 
L 4998 1824 
L 4685 1824 
L 4685 864 
L 4141 864 
L 4141 2170 
L 5459 2170 
L 5459 13 
C 5459 -70 5434 -96 5350 -96 
C 5254 -102 4960 -102 4627 -90 
C 4685 -211 4736 -384 4755 -499 
C 5216 -499 5510 -499 5690 -435 
C 5862 -358 5914 -237 5914 6 
L 5914 2592 
L 4186 2592 
L 4186 3136 
L 6118 3136 
L 6118 3565 
L 4992 3565 
L 4992 4282 
L 5939 4282 
L 5939 4710 
L 4992 4710 
L 4992 5376 
L 4525 5376 
L 4525 4710 
L 3392 4710 
L 3392 5376 
L 2944 5376 
L 2944 4710 
L 2022 4710 
L 2022 4282 
L 2944 4282 
L 2944 3565 
L 1805 3565 
L 1805 3136 
L 3725 3136 
L 3725 2592 
L 2067 2592 
z
M 3392 4282 
L 4525 4282 
L 4525 3565 
L 3392 3565 
L 3392 4282 
z
" transform="scale(0.015625)"/>
      </defs>
      <use xlink:href="#NotoSansCJKjp-Regular-31"/>
      <use xlink:href="#NotoSansCJKjp-Regular-5104" transform="translate(55.499985 0)"/>
      <use xlink:href="#NotoSansCJKjp-Regular-5186" transform="translate(155.499969 0)"/>
      <use xlink:href="#NotoSansCJKjp-Regular-4ee5" transform="translate(255.499954 0)"/>
      <use xlink:href="#NotoSansCJKjp-Regular-4e0a" transform="translate(355.499939 0)"/>
      <use xlink:href="#NotoSansCJKjp-Regular-31" transform="translate(455.499924 0)"/>
      <use xlink:href="#NotoSansCJKjp-Regular-30" transform="translate(510.999908 0)"/>
      <use xlink:href="#NotoSansCJKjp-Regular-5104" transform="translate(566.499893 0)"/>
      <use xlink:href="#NotoSansCJKjp-Regular-5186" transform="translate(666.499878 0)"/>
      <use xlink:href="#NotoSansCJKjp-Regular-672a" transform="translate(766.499863 0)"/>
      <use xlink:href="#NotoSansCJKjp-Regular-6e80" transform="translate(866.499847 0)"/>
     </g>
    </g>
    <g id="line2d_32">
     <path d="M 317.55 57.782575 
L 327.55 57.782575 
L 337.55 57.782575 
" style="fill: none; stroke: #bf7718; stroke-width: 2.5; stroke-linecap: square"/>
     <g>
      <use xlink:href="#mff83e5ef9d" x="327.55" y="57.782575" style="fill: #bf7718; stroke: #ffffff; stroke-width: 0.7; stroke-linejoin: miter"/>
     </g>
    </g>
    <g id="text_26">
     <!-- 1億円未満 -->
     <g style="fill: #25374b" transform="translate(345.55 61.282575) scale(0.1 -0.1)">
      <use xlink:href="#NotoSansCJKjp-Regular-31"/>
      <use xlink:href="#NotoSansCJKjp-Regular-5104" transform="translate(55.499985 0)"/>
      <use xlink:href="#NotoSansCJKjp-Regular-5186" transform="translate(155.499969 0)"/>
      <use xlink:href="#NotoSansCJKjp-Regular-672a" transform="translate(255.499954 0)"/>
      <use xlink:href="#NotoSansCJKjp-Regular-6e80" transform="translate(355.499939 0)"/>
     </g>
    </g>
   </g>
  </g>
  <g id="text_27">
   <!-- 資本金規模別の推移｜非製造業 -->
   <g style="fill: #25374b" transform="translate(64.8 25.577531) scale(0.15 -0.15)">
    <defs>
     <path id="NotoSansCJKjp-Bold-8cc7" d="M 506 4819 
C 947 4691 1555 4461 1856 4301 
L 2202 4883 
C 1882 5030 1267 5235 845 5344 
L 506 4819 
z
M 1837 1952 
L 4621 1952 
L 4621 1683 
L 1837 1683 
L 1837 1952 
z
M 1837 1248 
L 4621 1248 
L 4621 966 
L 1837 966 
L 1837 1248 
z
M 1837 2662 
L 4621 2662 
L 4621 2387 
L 1837 2387 
L 1837 2662 
z
M 3558 173 
C 4211 -70 4870 -378 5229 -589 
L 6125 -243 
C 5683 -26 4934 275 4269 512 
L 5395 512 
L 5395 3014 
C 5530 2982 5670 2950 5824 2925 
C 5894 3117 6061 3405 6208 3558 
C 4909 3706 4550 4051 4410 4467 
L 5114 4467 
C 5030 4333 4947 4205 4864 4109 
L 5466 3930 
C 5670 4173 5901 4557 6067 4902 
L 5562 5037 
L 5446 5011 
L 3552 5011 
L 3718 5325 
L 3040 5440 
C 2867 5062 2560 4640 2086 4320 
C 2272 4250 2528 4090 2669 3955 
C 2867 4115 3034 4288 3181 4467 
L 3648 4467 
C 3501 4013 3155 3738 2144 3571 
C 2246 3462 2374 3270 2445 3117 
L 1094 3117 
L 1094 512 
L 2048 512 
C 1600 282 896 83 269 -32 
C 435 -166 704 -442 838 -595 
C 1491 -416 2317 -96 2842 243 
L 2253 512 
L 4154 512 
L 3558 173 
z
M 224 3738 
L 512 3072 
C 998 3206 1587 3373 2144 3546 
L 2144 3571 
L 2074 4147 
C 1395 3987 698 3827 224 3738 
z
M 4058 3814 
C 4250 3539 4544 3296 5050 3117 
L 2867 3117 
C 3462 3283 3827 3507 4058 3814 
z
" transform="scale(0.015625)"/>
     <path id="NotoSansCJKjp-Bold-672c" d="M 2790 5434 
L 2790 4192 
L 378 4192 
L 378 3411 
L 2336 3411 
C 1837 2419 1024 1498 122 1005 
C 301 851 550 557 685 365 
C 1043 589 1376 870 1690 1190 
L 1690 512 
L 2790 512 
L 2790 -576 
L 3603 -576 
L 3603 512 
L 4666 512 
L 4666 1248 
C 4986 909 5338 621 5715 390 
C 5850 608 6118 922 6310 1082 
C 5389 1568 4570 2451 4064 3411 
L 6035 3411 
L 6035 4192 
L 3603 4192 
L 3603 5434 
L 2790 5434 
z
M 2790 1293 
L 1786 1293 
C 2163 1702 2502 2176 2790 2694 
L 2790 1293 
z
M 3603 1293 
L 3603 2707 
C 3891 2182 4237 1709 4627 1293 
L 3603 1293 
z
" transform="scale(0.015625)"/>
     <path id="NotoSansCJKjp-Bold-91d1" d="M 1210 1306 
C 1421 992 1645 563 1741 269 
L 486 269 
L 486 -390 
L 5926 -390 
L 5926 269 
L 4474 269 
C 4698 544 4954 928 5197 1286 
L 4480 1549 
L 5549 1549 
L 5549 2214 
L 3571 2214 
L 3571 2848 
L 4794 2848 
L 4794 3181 
C 5114 2950 5446 2746 5773 2573 
C 5914 2803 6093 3066 6285 3264 
C 5267 3674 4230 4486 3539 5459 
L 2739 5459 
C 2266 4678 1235 3718 141 3187 
C 307 3027 525 2739 621 2560 
C 947 2739 1274 2944 1574 3162 
L 1574 2848 
L 2758 2848 
L 2758 2214 
L 806 2214 
L 806 1549 
L 1792 1549 
L 1210 1306 
z
M 3174 4704 
C 3462 4320 3878 3904 4352 3520 
L 2035 3520 
C 2502 3904 2899 4320 3174 4704 
z
M 2758 1549 
L 2758 269 
L 1901 269 
L 2419 499 
C 2330 787 2074 1229 1830 1549 
L 2758 1549 
z
M 3571 1549 
L 4461 1549 
C 4314 1203 4058 742 3846 448 
L 4269 269 
L 3571 269 
L 3571 1549 
z
" transform="scale(0.015625)"/>
     <path id="NotoSansCJKjp-Bold-898f" d="M 3712 3552 
L 5114 3552 
L 5114 3174 
L 3712 3174 
L 3712 3552 
z
M 3712 2573 
L 5114 2573 
L 5114 2189 
L 3712 2189 
L 3712 2573 
z
M 3712 4531 
L 5114 4531 
L 5114 4160 
L 3712 4160 
L 3712 4531 
z
M 1184 5376 
L 1184 4454 
L 352 4454 
L 352 3776 
L 1184 3776 
L 1184 3059 
L 1184 2970 
L 250 2970 
L 250 2272 
L 1158 2272 
C 1094 1459 870 576 160 58 
C 333 -70 576 -333 685 -493 
C 1261 -19 1568 627 1728 1312 
C 1971 992 2234 640 2381 397 
L 2899 947 
C 2746 1133 2131 1843 1862 2112 
L 1875 2272 
L 2803 2272 
L 2803 2970 
L 1901 2970 
L 1901 3059 
L 1901 3776 
L 2707 3776 
L 2707 4454 
L 1901 4454 
L 1901 5376 
L 1184 5376 
z
M 3002 5210 
L 3002 1510 
L 3411 1510 
C 3322 832 3123 301 2182 -6 
C 2336 -134 2528 -403 2605 -576 
C 3731 -160 4019 563 4134 1510 
L 4461 1510 
L 4461 403 
C 4461 -230 4576 -448 5152 -448 
C 5254 -448 5466 -448 5574 -448 
C 6029 -448 6208 -211 6272 698 
C 6080 749 5779 864 5638 986 
C 5626 301 5600 218 5498 218 
C 5453 218 5312 218 5280 218 
C 5184 218 5171 237 5171 410 
L 5171 1510 
L 5856 1510 
L 5856 5210 
L 3002 5210 
z
" transform="scale(0.015625)"/>
     <path id="NotoSansCJKjp-Bold-6a21" d="M 3277 2586 
L 5037 2586 
L 5037 2304 
L 3277 2304 
L 3277 2586 
z
M 3277 3360 
L 5037 3360 
L 5037 3085 
L 3277 3085 
L 3277 3360 
z
M 4608 5440 
L 4608 4998 
L 3866 4998 
L 3866 5440 
L 3136 5440 
L 3136 4998 
L 2387 4998 
L 2387 4371 
L 3136 4371 
L 3136 4006 
L 3866 4006 
L 3866 4371 
L 4608 4371 
L 4608 4006 
L 5350 4006 
L 5350 4371 
L 6074 4371 
L 6074 4998 
L 5350 4998 
L 5350 5440 
L 4608 5440 
z
M 2566 3891 
L 2566 1773 
L 3795 1773 
C 3782 1645 3763 1517 3744 1402 
L 2272 1402 
L 2272 768 
L 3494 768 
C 3258 435 2829 198 2029 38 
C 2176 -109 2355 -390 2419 -576 
C 3475 -320 4000 77 4269 634 
C 4589 45 5075 -365 5798 -563 
C 5901 -371 6112 -77 6272 70 
C 5696 186 5267 422 4979 768 
L 6099 768 
L 6099 1402 
L 4499 1402 
L 4544 1773 
L 5779 1773 
L 5779 3891 
L 2566 3891 
z
M 966 5440 
L 966 4243 
L 269 4243 
L 269 3533 
L 966 3533 
L 966 3373 
C 787 2643 474 1818 115 1357 
C 243 1152 410 800 486 582 
C 659 851 826 1216 966 1626 
L 966 -570 
L 1690 -570 
L 1690 2336 
C 1824 2067 1946 1792 2016 1600 
L 2470 2138 
C 2362 2323 1875 3066 1690 3309 
L 1690 3533 
L 2272 3533 
L 2272 4243 
L 1690 4243 
L 1690 5440 
L 966 5440 
z
" transform="scale(0.015625)"/>
     <path id="NotoSansCJKjp-Bold-5225" d="M 3667 4659 
L 3667 1037 
L 4410 1037 
L 4410 4659 
L 3667 4659 
z
M 5178 5306 
L 5178 358 
C 5178 237 5126 198 5005 198 
C 4870 198 4454 198 4032 211 
C 4147 -6 4269 -358 4301 -576 
C 4890 -582 5312 -557 5581 -435 
C 5843 -307 5939 -96 5939 358 
L 5939 5306 
L 5178 5306 
z
M 1235 4467 
L 2438 4467 
L 2438 3584 
L 1235 3584 
L 1235 4467 
z
M 538 5139 
L 538 2906 
L 1178 2906 
C 1126 1830 1005 672 154 -19 
C 333 -147 557 -390 666 -576 
C 1344 0 1651 826 1805 1709 
L 2509 1709 
C 2464 685 2406 269 2310 166 
C 2253 96 2195 83 2099 83 
C 1984 83 1728 83 1466 115 
C 1574 -70 1658 -352 1670 -550 
C 1971 -563 2272 -557 2445 -531 
C 2650 -506 2790 -448 2925 -288 
C 3104 -70 3168 550 3232 2099 
C 3232 2182 3238 2381 3238 2381 
L 1888 2381 
L 1926 2906 
L 3181 2906 
L 3181 5139 
L 538 5139 
z
" transform="scale(0.015625)"/>
     <path id="NotoSansCJKjp-Bold-306e" d="M 2854 3949 
C 2784 3418 2662 2874 2515 2400 
C 2253 1536 2003 1133 1734 1133 
C 1485 1133 1229 1446 1229 2093 
C 1229 2797 1798 3731 2854 3949 
z
M 3725 3968 
C 4589 3821 5069 3162 5069 2278 
C 5069 1344 4429 755 3610 563 
C 3437 525 3258 486 3014 461 
L 3494 -301 
C 5107 -51 5933 902 5933 2253 
C 5933 3648 4934 4749 3347 4749 
C 1690 4749 410 3488 410 2010 
C 410 928 998 147 1709 147 
C 2406 147 2957 941 3341 2234 
C 3526 2835 3635 3424 3725 3968 
z
" transform="scale(0.015625)"/>
     <path id="NotoSansCJKjp-Bold-63a8" d="M 4192 2349 
L 4192 1728 
L 3450 1728 
L 3450 2349 
L 4192 2349 
z
M 3136 5453 
C 2944 4736 2630 4045 2240 3520 
C 2144 3398 2048 3277 1946 3174 
C 2086 3014 2336 2662 2432 2496 
C 2528 2598 2624 2714 2714 2842 
L 2714 -563 
L 3450 -563 
L 3450 -250 
L 6189 -250 
L 6189 442 
L 4902 442 
L 4902 1082 
L 5901 1082 
L 5901 1728 
L 4902 1728 
L 4902 2349 
L 5901 2349 
L 5901 2989 
L 4902 2989 
L 4902 3597 
L 6067 3597 
L 6067 4269 
L 4979 4269 
C 5126 4576 5280 4922 5414 5261 
L 4602 5427 
C 4512 5082 4371 4640 4218 4269 
L 3514 4269 
C 3654 4595 3776 4928 3872 5267 
L 3136 5453 
z
M 4192 2989 
L 3450 2989 
L 3450 3597 
L 4192 3597 
L 4192 2989 
z
M 4192 1082 
L 4192 442 
L 3450 442 
L 3450 1082 
L 4192 1082 
z
M 1011 5434 
L 1011 4224 
L 262 4224 
L 262 3520 
L 1011 3520 
L 1011 2362 
C 685 2285 378 2214 134 2163 
L 294 1414 
L 1011 1613 
L 1011 294 
C 1011 198 979 173 896 173 
C 813 166 557 166 301 179 
C 397 -32 499 -365 518 -570 
C 960 -570 1261 -544 1478 -416 
C 1690 -294 1747 -90 1747 288 
L 1747 1824 
L 2317 1984 
L 2227 2669 
L 1747 2547 
L 1747 3520 
L 2240 3520 
L 2240 4224 
L 1747 4224 
L 1747 5434 
L 1011 5434 
z
" transform="scale(0.015625)"/>
     <path id="NotoSansCJKjp-Bold-79fb" d="M 3910 4262 
L 4909 4262 
C 4768 4051 4595 3859 4397 3693 
C 4230 3846 3994 4013 3782 4147 
L 3910 4262 
z
M 3981 5434 
C 3699 4934 3181 4403 2368 4026 
C 2522 3917 2746 3661 2842 3494 
C 3002 3584 3155 3674 3296 3770 
C 3488 3642 3706 3462 3866 3309 
C 3469 3078 3021 2906 2547 2797 
C 2688 2656 2867 2374 2944 2189 
C 3360 2310 3757 2464 4122 2662 
C 3808 2202 3302 1741 2579 1408 
C 2733 1293 2950 1043 3046 870 
C 3213 960 3360 1050 3507 1146 
C 3725 1011 3962 826 4141 659 
C 3654 365 3072 166 2426 58 
C 2566 -96 2733 -403 2803 -595 
C 4442 -230 5696 550 6208 2208 
L 5715 2406 
L 5581 2381 
L 4768 2381 
C 4864 2522 4954 2662 5030 2810 
L 4512 2906 
C 5139 3328 5632 3910 5920 4685 
L 5434 4902 
L 5306 4877 
L 4454 4877 
C 4550 5011 4640 5152 4723 5293 
L 3981 5434 
z
M 4250 1754 
L 5210 1754 
C 5075 1504 4909 1286 4704 1088 
C 4525 1254 4275 1427 4045 1562 
L 4250 1754 
z
M 2176 5370 
C 1683 5152 896 4960 186 4845 
C 269 4685 365 4429 403 4256 
C 653 4288 915 4333 1184 4378 
L 1184 3635 
L 262 3635 
L 262 2925 
L 1082 2925 
C 851 2304 486 1613 128 1197 
C 250 1005 416 685 486 467 
C 736 787 979 1242 1184 1734 
L 1184 -570 
L 1926 -570 
L 1926 1939 
C 2080 1702 2234 1453 2310 1286 
L 2752 1894 
C 2630 2035 2099 2592 1926 2733 
L 1926 2925 
L 2611 2925 
L 2611 3635 
L 1926 3635 
L 1926 4544 
C 2202 4608 2464 4691 2694 4781 
L 2176 5370 
z
" transform="scale(0.015625)"/>
     <path id="NotoSansCJKjp-Bold-ff5c" d="M 3347 5632 
L 3053 5632 
L 3053 -768 
L 3347 -768 
L 3347 5632 
z
" transform="scale(0.015625)"/>
     <path id="NotoSansCJKjp-Bold-975e" d="M 3565 5402 
L 3565 -576 
L 4333 -576 
L 4333 902 
L 6189 902 
L 6189 1619 
L 4333 1619 
L 4333 2406 
L 5926 2406 
L 5926 3104 
L 4333 3104 
L 4333 3866 
L 6074 3866 
L 6074 4582 
L 4333 4582 
L 4333 5402 
L 3565 5402 
z
M 2010 5402 
L 2010 4582 
L 442 4582 
L 442 3866 
L 2010 3866 
L 2010 3104 
L 512 3104 
L 512 2406 
L 2010 2406 
C 2010 2227 1990 2016 1939 1779 
C 1267 1696 634 1613 166 1568 
L 314 806 
L 1632 1011 
C 1382 595 979 192 339 -77 
C 518 -230 768 -474 896 -653 
C 1824 -198 2310 493 2554 1165 
L 3219 1274 
L 3194 1952 
L 2733 1888 
C 2758 2074 2771 2246 2771 2406 
L 2771 5402 
L 2010 5402 
z
" transform="scale(0.015625)"/>
     <path id="NotoSansCJKjp-Bold-88fd" d="M 3782 5178 
L 3782 3040 
L 4467 3040 
L 4467 5178 
L 3782 5178 
z
M 5165 5389 
L 5165 2829 
C 5165 2752 5133 2726 5043 2726 
C 4947 2720 4640 2720 4352 2733 
C 4442 2566 4544 2310 4576 2125 
C 5018 2125 5338 2131 5562 2227 
C 5792 2330 5856 2490 5856 2816 
L 5856 5389 
L 5165 5389 
z
M 794 5427 
C 691 5094 512 4749 294 4506 
C 397 4454 563 4358 691 4282 
L 301 4282 
L 301 3763 
L 1626 3763 
L 1626 3539 
L 563 3539 
L 563 2278 
L 1139 2278 
L 1139 3078 
L 1626 3078 
L 1626 2131 
L 2278 2131 
L 2278 3078 
L 2797 3078 
L 2797 2810 
C 2797 2758 2778 2739 2720 2739 
C 2675 2739 2528 2739 2381 2746 
C 2445 2624 2528 2451 2560 2304 
L 2816 2304 
L 2816 1978 
L 314 1978 
L 314 1370 
L 2189 1370 
C 1632 1114 909 922 205 826 
C 346 685 525 435 614 275 
C 973 339 1331 429 1677 544 
L 1677 186 
L 1037 115 
L 1152 -512 
C 1856 -410 2816 -275 3725 -147 
L 3693 454 
L 2413 282 
L 2413 845 
C 2694 979 2944 1133 3168 1299 
C 3654 275 4454 -326 5792 -589 
C 5882 -403 6061 -122 6214 26 
C 5664 102 5197 243 4813 454 
C 5158 614 5549 826 5875 1050 
L 5434 1370 
L 6093 1370 
L 6093 1978 
L 3584 1978 
L 3584 2317 
L 2963 2317 
C 3053 2323 3130 2342 3200 2374 
C 3366 2451 3411 2566 3411 2810 
L 3411 3539 
L 2278 3539 
L 2278 3763 
L 3507 3763 
L 3507 4282 
L 2278 4282 
L 2278 4531 
L 3341 4531 
L 3341 5024 
L 2278 5024 
L 2278 5440 
L 1626 5440 
L 1626 5024 
L 1261 5024 
L 1363 5286 
L 794 5427 
z
M 4301 813 
C 4115 979 3968 1158 3840 1370 
L 5222 1370 
C 4966 1190 4608 973 4301 813 
z
M 1626 4282 
L 845 4282 
C 902 4358 960 4442 1011 4531 
L 1626 4531 
L 1626 4282 
z
" transform="scale(0.015625)"/>
     <path id="NotoSansCJKjp-Bold-9020" d="M 288 4826 
C 672 4538 1133 4109 1325 3808 
L 1933 4320 
C 1715 4621 1242 5024 858 5286 
L 288 4826 
z
M 3245 1920 
L 4934 1920 
L 4934 1267 
L 3245 1267 
L 3245 1920 
z
M 2496 2534 
L 2496 659 
L 5734 659 
L 5734 2534 
L 2496 2534 
z
M 2886 4064 
L 3693 4064 
L 3693 3526 
L 2477 3526 
C 2618 3680 2752 3859 2886 4064 
z
M 3693 5440 
L 3693 4710 
L 3238 4710 
C 3315 4870 3386 5043 3443 5210 
L 2726 5376 
C 2547 4806 2214 4237 1818 3878 
C 1984 3802 2291 3642 2445 3526 
L 1984 3526 
L 1984 2880 
L 6125 2880 
L 6125 3526 
L 4454 3526 
L 4454 4064 
L 5856 4064 
L 5856 4710 
L 4454 4710 
L 4454 5440 
L 3693 5440 
z
M 1773 2944 
L 282 2944 
L 282 2234 
L 1024 2234 
L 1024 877 
C 736 659 416 448 141 288 
L 518 -512 
C 864 -237 1158 13 1434 256 
C 1856 -237 2381 -422 3174 -454 
C 3942 -486 5229 -474 6003 -435 
C 6042 -211 6163 160 6246 346 
C 5389 275 3936 256 3187 288 
C 2515 314 2035 493 1773 915 
L 1773 2944 
z
" transform="scale(0.015625)"/>
     <path id="NotoSansCJKjp-Bold-696d" d="M 1645 3750 
C 1728 3603 1811 3398 1862 3245 
L 640 3245 
L 640 2643 
L 2810 2643 
L 2810 2362 
L 954 2362 
L 954 1805 
L 2810 1805 
L 2810 1523 
L 358 1523 
L 358 890 
L 2195 890 
C 1638 557 890 288 166 141 
C 326 -13 550 -314 659 -499 
C 1421 -294 2208 70 2810 538 
L 2810 -576 
L 3571 -576 
L 3571 576 
C 4160 77 4934 -307 5728 -506 
C 5843 -294 6067 26 6246 192 
C 5504 307 4762 563 4218 890 
L 6067 890 
L 6067 1523 
L 3571 1523 
L 3571 1805 
L 5504 1805 
L 5504 2362 
L 3571 2362 
L 3571 2643 
L 5798 2643 
L 5798 3245 
L 4538 3245 
L 4845 3763 
L 6048 3763 
L 6048 4390 
L 5216 4390 
C 5363 4614 5542 4902 5715 5197 
L 4915 5389 
C 4826 5107 4653 4717 4506 4461 
L 4736 4390 
L 4166 4390 
L 4166 5440 
L 3443 5440 
L 3443 4390 
L 2970 4390 
L 2970 5440 
L 2253 5440 
L 2253 4390 
L 1664 4390 
L 1978 4506 
C 1894 4755 1683 5133 1491 5408 
L 832 5184 
C 979 4947 1139 4634 1235 4390 
L 378 4390 
L 378 3763 
L 1722 3763 
L 1645 3750 
z
M 3987 3763 
C 3923 3584 3840 3398 3770 3245 
L 2528 3245 
L 2675 3270 
C 2630 3405 2547 3597 2458 3763 
L 3987 3763 
z
" transform="scale(0.015625)"/>
    </defs>
    <use xlink:href="#NotoSansCJKjp-Bold-8cc7"/>
    <use xlink:href="#NotoSansCJKjp-Bold-672c" transform="translate(99.999985 0)"/>
    <use xlink:href="#NotoSansCJKjp-Bold-91d1" transform="translate(199.999969 0)"/>
    <use xlink:href="#NotoSansCJKjp-Bold-898f" transform="translate(299.999954 0)"/>
    <use xlink:href="#NotoSansCJKjp-Bold-6a21" transform="translate(399.999939 0)"/>
    <use xlink:href="#NotoSansCJKjp-Bold-5225" transform="translate(499.999924 0)"/>
    <use xlink:href="#NotoSansCJKjp-Bold-306e" transform="translate(599.999908 0)"/>
    <use xlink:href="#NotoSansCJKjp-Bold-63a8" transform="translate(699.999893 0)"/>
    <use xlink:href="#NotoSansCJKjp-Bold-79fb" transform="translate(799.999878 0)"/>
    <use xlink:href="#NotoSansCJKjp-Bold-ff5c" transform="translate(899.999863 0)"/>
    <use xlink:href="#NotoSansCJKjp-Bold-975e" transform="translate(999.999847 0)"/>
    <use xlink:href="#NotoSansCJKjp-Bold-88fd" transform="translate(1099.999832 0)"/>
    <use xlink:href="#NotoSansCJKjp-Bold-9020" transform="translate(1199.999817 0)"/>
    <use xlink:href="#NotoSansCJKjp-Bold-696d" transform="translate(1299.999802 0)"/>
   </g>
  </g>
  <g id="text_28">
   <!-- 出典：財務省「法人企業統計調査」年次別調査（e-Stat）｜金融業・保険業を除く -->
   <g style="fill: #64748b" transform="translate(64.8 381.024) scale(0.09 -0.09)">
    <defs>
     <path id="NotoSansCJKjp-Regular-51fa" d="M 966 4768 
L 966 2560 
L 2918 2560 
L 2918 365 
L 1203 365 
L 1203 2144 
L 723 2144 
L 723 -512 
L 1203 -512 
L 1203 -109 
L 5222 -109 
L 5222 -499 
L 5715 -499 
L 5715 2144 
L 5222 2144 
L 5222 365 
L 3418 365 
L 3418 2560 
L 5459 2560 
L 5459 4768 
L 4960 4768 
L 4960 3021 
L 3418 3021 
L 3418 5344 
L 2918 5344 
L 2918 3021 
L 1446 3021 
L 1446 4768 
L 966 4768 
z
" transform="scale(0.015625)"/>
     <path id="NotoSansCJKjp-Regular-5178" d="M 3802 576 
C 4467 243 5171 -179 5594 -486 
L 6016 -166 
C 5568 147 4819 563 4134 890 
L 3802 576 
z
M 2170 883 
C 1779 518 979 77 314 -166 
C 429 -256 595 -416 678 -518 
C 1331 -250 2131 186 2624 602 
L 2170 883 
z
M 2272 1446 
L 1363 1446 
L 1363 2630 
L 2272 2630 
L 2272 1446 
z
M 2726 1446 
L 2726 2630 
L 3667 2630 
L 3667 1446 
L 2726 1446 
z
M 4122 1446 
L 4122 2630 
L 5075 2630 
L 5075 1446 
L 4122 1446 
z
M 896 4608 
L 896 1446 
L 250 1446 
L 250 992 
L 6144 992 
L 6144 1446 
L 5555 1446 
L 5555 4608 
L 4122 4608 
L 4122 5395 
L 3667 5395 
L 3667 4608 
L 2726 4608 
L 2726 5389 
L 2272 5389 
L 2272 4608 
L 896 4608 
z
M 2272 3078 
L 1363 3078 
L 1363 4154 
L 2272 4154 
L 2272 3078 
z
M 2726 3078 
L 2726 4154 
L 3667 4154 
L 3667 3078 
L 2726 3078 
z
M 4122 3078 
L 4122 4154 
L 5075 4154 
L 5075 3078 
L 4122 3078 
z
" transform="scale(0.015625)"/>
     <path id="NotoSansCJKjp-Regular-ff1a" d="M 3200 3482 
C 3456 3482 3686 3667 3686 3962 
C 3686 4256 3456 4442 3200 4442 
C 2944 4442 2714 4256 2714 3962 
C 2714 3667 2944 3482 3200 3482 
z
M 3200 346 
C 3456 346 3686 538 3686 826 
C 3686 1120 3456 1312 3200 1312 
C 2944 1312 2714 1120 2714 826 
C 2714 538 2944 346 3200 346 
z
" transform="scale(0.015625)"/>
     <path id="NotoSansCJKjp-Regular-8ca1" d="M 998 966 
C 832 512 544 64 211 -230 
C 320 -294 518 -435 602 -518 
C 934 -186 1267 333 1459 851 
L 998 966 
z
M 1907 787 
C 2170 461 2458 19 2586 -275 
L 2995 -58 
C 2861 230 2566 653 2291 966 
L 1907 787 
z
M 1011 3533 
L 2336 3533 
L 2336 2714 
L 1011 2714 
L 1011 3533 
z
M 1011 2336 
L 2336 2336 
L 2336 1504 
L 1011 1504 
L 1011 2336 
z
M 1011 4730 
L 2336 4730 
L 2336 3910 
L 1011 3910 
L 1011 4730 
z
M 557 5126 
L 557 1107 
L 2810 1107 
L 2810 5126 
L 557 5126 
z
M 4858 5357 
L 4858 3853 
L 3008 3853 
L 3008 3405 
L 4685 3405 
C 4275 2381 3578 1370 2867 858 
C 2970 781 3117 614 3194 506 
C 3821 1011 4422 1850 4858 2784 
L 4858 96 
C 4858 -13 4819 -45 4717 -51 
C 4614 -51 4301 -51 3942 -45 
C 4013 -173 4090 -384 4109 -518 
C 4595 -518 4896 -499 5075 -416 
C 5261 -339 5331 -198 5331 96 
L 5331 3405 
L 6157 3405 
L 6157 3853 
L 5331 3853 
L 5331 5357 
L 4858 5357 
z
" transform="scale(0.015625)"/>
     <path id="NotoSansCJKjp-Regular-52d9" d="M 3776 5382 
C 3514 4762 3053 4179 2547 3808 
C 2662 3744 2854 3603 2944 3526 
C 3098 3654 3258 3808 3405 3981 
C 3590 3693 3814 3430 4070 3200 
C 3738 2989 3347 2822 2918 2701 
L 3014 3046 
L 2714 3149 
L 2643 3123 
L 2170 3123 
L 2426 3405 
C 2291 3526 2099 3661 1888 3789 
C 2272 4083 2675 4493 2931 4877 
L 2618 5075 
L 2541 5056 
L 365 5056 
L 365 4640 
L 2189 4640 
C 2003 4416 1760 4179 1523 4000 
C 1312 4109 1088 4218 890 4301 
L 589 3987 
C 1088 3770 1690 3411 2029 3123 
L 294 3123 
L 294 2694 
L 1261 2694 
C 1024 2035 634 1350 230 979 
C 314 858 429 659 480 531 
C 832 883 1171 1478 1421 2099 
L 1421 51 
C 1421 -19 1395 -38 1318 -45 
C 1242 -51 986 -51 710 -38 
C 774 -166 838 -365 858 -486 
C 1248 -486 1498 -480 1664 -410 
C 1830 -333 1882 -198 1882 45 
L 1882 2694 
L 2490 2694 
C 2400 2317 2272 1926 2150 1664 
L 2483 1498 
C 2618 1760 2746 2131 2861 2502 
C 2931 2413 3002 2317 3034 2246 
C 3558 2413 4032 2624 4442 2906 
C 4870 2605 5363 2374 5901 2227 
C 5971 2355 6106 2541 6214 2637 
C 5696 2752 5216 2944 4806 3194 
C 5139 3494 5402 3853 5587 4294 
L 6074 4294 
L 6074 4704 
L 3942 4704 
C 4051 4883 4147 5069 4230 5254 
L 3776 5382 
z
M 4032 2419 
C 4013 2202 3987 1990 3942 1786 
L 2842 1786 
L 2842 1370 
L 3840 1370 
C 3642 717 3238 186 2349 -141 
C 2451 -230 2579 -403 2630 -512 
C 3661 -115 4115 550 4339 1370 
L 5421 1370 
C 5325 499 5229 128 5107 13 
C 5050 -45 4992 -51 4890 -51 
C 4787 -51 4525 -45 4250 -19 
C 4320 -141 4371 -333 4378 -467 
C 4672 -486 4947 -480 5094 -474 
C 5267 -454 5382 -416 5498 -301 
C 5683 -109 5805 378 5926 1574 
C 5933 1651 5939 1786 5939 1786 
L 4429 1786 
C 4467 1990 4493 2202 4512 2419 
L 4032 2419 
z
M 4429 3462 
C 4128 3706 3885 3987 3706 4294 
L 5050 4294 
C 4909 3968 4691 3699 4429 3462 
z
" transform="scale(0.015625)"/>
     <path id="NotoSansCJKjp-Regular-7701" d="M 2950 5382 
L 2950 3872 
C 2950 3795 2925 3776 2822 3770 
C 2726 3763 2381 3763 2010 3776 
C 2086 3654 2170 3488 2202 3354 
C 2656 3354 2963 3360 3168 3424 
C 3373 3494 3437 3610 3437 3859 
L 3437 5382 
L 2950 5382 
z
M 1734 5037 
C 1408 4557 870 4096 339 3789 
C 454 3712 640 3539 723 3456 
C 1248 3802 1824 4333 2195 4896 
L 1734 5037 
z
M 4301 4838 
C 4819 4474 5434 3949 5715 3590 
L 6125 3859 
C 5818 4218 5197 4736 4685 5082 
L 4301 4838 
z
M 4506 4198 
C 3712 3270 1984 2797 243 2579 
C 339 2477 486 2272 550 2157 
C 883 2208 1216 2272 1542 2342 
L 1542 -518 
L 2010 -518 
L 2010 -288 
L 4813 -288 
L 4813 -486 
L 5299 -486 
L 5299 2739 
L 2931 2739 
C 3757 3034 4480 3437 4960 3994 
L 4506 4198 
z
M 2010 1491 
L 4813 1491 
L 4813 960 
L 2010 960 
L 2010 1491 
z
M 2010 1843 
L 2010 2362 
L 4813 2362 
L 4813 1843 
L 2010 1843 
z
M 2010 608 
L 4813 608 
L 4813 83 
L 2010 83 
L 2010 608 
z
" transform="scale(0.015625)"/>
     <path id="NotoSansCJKjp-Regular-300c" d="M 4160 5414 
L 4160 1274 
L 4634 1274 
L 4634 4973 
L 6182 4973 
L 6182 5414 
L 4160 5414 
z
" transform="scale(0.015625)"/>
     <path id="NotoSansCJKjp-Regular-6cd5" d="M 589 4979 
C 1030 4800 1574 4499 1837 4275 
L 2118 4672 
C 1843 4896 1293 5171 851 5331 
L 589 4979 
z
M 250 3213 
C 691 3059 1242 2784 1517 2579 
L 1779 2989 
C 1491 3194 934 3443 493 3578 
L 250 3213 
z
M 467 -115 
L 883 -435 
C 1242 166 1664 960 1984 1638 
L 1626 1946 
C 1280 1222 800 378 467 -115 
z
M 4550 1363 
C 4781 1088 5018 768 5222 448 
L 3027 320 
C 3309 877 3616 1606 3846 2227 
L 6080 2227 
L 6080 2688 
L 4250 2688 
L 4250 3872 
L 5779 3872 
L 5779 4326 
L 4250 4326 
L 4250 5376 
L 3763 5376 
L 3763 4326 
L 2291 4326 
L 2291 3872 
L 3763 3872 
L 3763 2688 
L 1971 2688 
L 1971 2227 
L 3283 2227 
C 3091 1613 2784 838 2515 294 
L 1978 269 
L 2042 -218 
C 2938 -160 4230 -70 5472 26 
C 5587 -173 5677 -365 5741 -525 
L 6189 -275 
C 5978 243 5446 1011 4966 1581 
L 4550 1363 
z
" transform="scale(0.015625)"/>
     <path id="NotoSansCJKjp-Regular-4eba" d="M 2867 5178 
C 2829 4333 2829 1254 211 -83 
C 365 -186 518 -333 602 -454 
C 2234 429 2893 1978 3174 3270 
C 3488 1978 4205 339 5856 -454 
C 5933 -326 6080 -160 6227 -51 
C 3782 1062 3443 4064 3386 4890 
L 3405 5178 
L 2867 5178 
z
" transform="scale(0.015625)"/>
     <path id="NotoSansCJKjp-Regular-4f01" d="M 3174 4915 
C 3757 4045 4877 3059 5882 2477 
C 5965 2611 6086 2778 6208 2893 
C 5190 3411 4064 4384 3392 5395 
L 2899 5395 
C 2406 4506 1331 3450 218 2816 
C 326 2714 461 2547 525 2438 
C 1613 3085 2656 4090 3174 4915 
z
M 1293 2490 
L 1293 109 
L 480 109 
L 480 -326 
L 5939 -326 
L 5939 109 
L 3488 109 
L 3488 1709 
L 5338 1709 
L 5338 2150 
L 3488 2150 
L 3488 3648 
L 2982 3648 
L 2982 109 
L 1766 109 
L 1766 2490 
L 1293 2490 
z
" transform="scale(0.015625)"/>
     <path id="NotoSansCJKjp-Regular-696d" d="M 1786 3782 
C 1914 3584 2035 3328 2093 3136 
L 691 3136 
L 691 2739 
L 2950 2739 
L 2950 2272 
L 1011 2272 
L 1011 1901 
L 2950 1901 
L 2950 1427 
L 410 1427 
L 410 1018 
L 2515 1018 
C 1933 570 1043 186 237 0 
C 346 -102 486 -282 550 -403 
C 1389 -173 2330 294 2950 851 
L 2950 -512 
L 3430 -512 
L 3430 883 
C 4051 294 4986 -186 5850 -422 
C 5920 -294 6061 -102 6170 0 
C 5344 179 4454 557 3866 1018 
L 6016 1018 
L 6016 1427 
L 3430 1427 
L 3430 1901 
L 5446 1901 
L 5446 2272 
L 3430 2272 
L 3430 2739 
L 5760 2739 
L 5760 3136 
L 4301 3136 
C 4429 3334 4570 3578 4698 3821 
L 4672 3827 
L 5990 3827 
L 5990 4237 
L 4992 4237 
C 5165 4486 5376 4838 5555 5165 
L 5062 5299 
C 4954 5011 4742 4589 4570 4320 
L 4813 4237 
L 4038 4237 
L 4038 5382 
L 3578 5382 
L 3578 4237 
L 2816 4237 
L 2816 5382 
L 2362 5382 
L 2362 4237 
L 1574 4237 
L 1907 4365 
C 1811 4621 1581 5024 1357 5312 
L 947 5171 
C 1146 4883 1370 4499 1459 4237 
L 429 4237 
L 429 3827 
L 2029 3827 
L 1786 3782 
z
M 4160 3827 
C 4070 3610 3942 3341 3834 3155 
L 3898 3136 
L 2394 3136 
L 2586 3174 
C 2534 3360 2400 3629 2266 3827 
L 4160 3827 
z
" transform="scale(0.015625)"/>
     <path id="NotoSansCJKjp-Regular-7d71" d="M 4589 2214 
L 4589 147 
C 4589 -333 4691 -474 5133 -474 
C 5222 -474 5594 -474 5683 -474 
C 6067 -474 6182 -250 6227 582 
C 6099 614 5907 685 5811 768 
C 5792 70 5773 -38 5638 -38 
C 5555 -38 5261 -38 5203 -38 
C 5062 -38 5043 -13 5043 147 
L 5043 2214 
L 4589 2214 
z
M 1907 1651 
C 2074 1274 2240 787 2304 467 
L 2669 595 
C 2605 909 2438 1395 2259 1760 
L 1907 1651 
z
M 582 1715 
C 506 1152 378 582 160 192 
C 269 154 454 64 544 6 
C 749 416 909 1037 992 1645 
L 582 1715 
z
M 3398 2208 
C 3354 966 3200 224 2170 -179 
C 2272 -262 2400 -422 2451 -538 
C 3590 -64 3802 806 3859 2208 
L 3398 2208 
z
M 2573 2886 
L 2611 2438 
C 3366 2490 4435 2560 5472 2643 
C 5581 2458 5677 2285 5741 2144 
L 6150 2374 
C 5958 2784 5504 3398 5107 3853 
L 4736 3648 
C 4896 3462 5056 3251 5203 3040 
L 3635 2944 
C 3808 3283 3987 3718 4147 4096 
L 6048 4096 
L 6048 4531 
L 4493 4531 
L 4493 5376 
L 4006 5376 
L 4006 4531 
L 2547 4531 
L 2547 4096 
L 3597 4096 
C 3482 3718 3302 3251 3136 2912 
L 2573 2886 
z
M 218 2509 
L 262 2074 
L 1267 2138 
L 1267 -525 
L 1696 -525 
L 1696 2163 
L 2202 2195 
C 2259 2054 2298 1926 2323 1818 
L 2688 1978 
C 2598 2330 2342 2880 2080 3296 
L 1741 3155 
C 1850 2982 1952 2778 2042 2579 
L 1088 2541 
C 1523 3104 2010 3853 2374 4461 
L 1971 4646 
C 1798 4301 1568 3891 1312 3494 
C 1216 3622 1082 3770 941 3917 
C 1178 4269 1453 4781 1670 5203 
L 1248 5376 
C 1114 5018 883 4538 678 4179 
L 486 4346 
L 243 4026 
C 538 3763 870 3398 1069 3117 
C 928 2899 781 2694 646 2522 
L 218 2509 
z
" transform="scale(0.015625)"/>
     <path id="NotoSansCJKjp-Regular-8a08" d="M 550 3437 
L 550 3059 
L 2547 3059 
L 2547 3437 
L 550 3437 
z
M 582 5152 
L 582 4768 
L 2554 4768 
L 2554 5152 
L 582 5152 
z
M 550 2586 
L 550 2202 
L 2547 2202 
L 2547 2586 
L 550 2586 
z
M 243 4314 
L 243 3910 
L 2790 3910 
L 2790 4314 
L 243 4314 
z
M 4288 5357 
L 4288 3187 
L 2784 3187 
L 2784 2714 
L 4288 2714 
L 4288 -512 
L 4768 -512 
L 4768 2714 
L 6214 2714 
L 6214 3187 
L 4768 3187 
L 4768 5357 
L 4288 5357 
z
M 538 1722 
L 538 -442 
L 966 -442 
L 966 -147 
L 2528 -147 
L 2528 1722 
L 538 1722 
z
M 966 1318 
L 2099 1318 
L 2099 250 
L 966 250 
L 966 1318 
z
" transform="scale(0.015625)"/>
     <path id="NotoSansCJKjp-Regular-8abf" d="M 506 3437 
L 506 3059 
L 2150 3059 
L 2150 3437 
L 506 3437 
z
M 550 5152 
L 550 4768 
L 2138 4768 
L 2138 5152 
L 550 5152 
z
M 506 2586 
L 506 2202 
L 2150 2202 
L 2150 2586 
L 506 2586 
z
M 243 4314 
L 243 3910 
L 2317 3910 
L 2317 4314 
L 243 4314 
z
M 4070 4563 
L 4070 4013 
L 3411 4013 
L 3411 3635 
L 4070 3635 
L 4070 3027 
L 3354 3027 
L 3354 2650 
L 5235 2650 
L 5235 3027 
L 4461 3027 
L 4461 3635 
L 5146 3635 
L 5146 4013 
L 4461 4013 
L 4461 4563 
L 4070 4563 
z
M 2643 5107 
L 2643 2810 
C 2643 1862 2598 602 2099 -288 
C 2202 -339 2400 -474 2477 -550 
C 3008 390 3078 1811 3078 2810 
L 3078 4691 
L 5504 4691 
L 5504 96 
C 5504 -6 5472 -32 5376 -38 
C 5274 -38 4941 -45 4589 -32 
C 4653 -160 4717 -384 4736 -506 
C 5210 -506 5536 -499 5709 -422 
C 5894 -339 5952 -192 5952 96 
L 5952 5107 
L 2643 5107 
z
M 3450 2163 
L 3450 250 
L 3814 250 
L 3814 506 
L 5107 506 
L 5107 2163 
L 3450 2163 
z
M 3814 1792 
L 4736 1792 
L 4736 877 
L 3814 877 
L 3814 1792 
z
M 499 1722 
L 499 -442 
L 896 -442 
L 896 -141 
L 2144 -141 
L 2144 1722 
L 499 1722 
z
M 896 1325 
L 1747 1325 
L 1747 256 
L 896 256 
L 896 1325 
z
" transform="scale(0.015625)"/>
     <path id="NotoSansCJKjp-Regular-67fb" d="M 1421 2573 
L 1421 58 
L 346 58 
L 346 -378 
L 6067 -378 
L 6067 58 
L 4992 58 
L 4992 2573 
L 1421 2573 
z
M 1894 58 
L 1894 525 
L 4499 525 
L 4499 58 
L 1894 58 
z
M 1894 1350 
L 4499 1350 
L 4499 890 
L 1894 890 
L 1894 1350 
z
M 1894 1709 
L 1894 2170 
L 4499 2170 
L 4499 1709 
L 1894 1709 
z
M 2944 5376 
L 2944 4563 
L 365 4563 
L 365 4141 
L 2426 4141 
C 1875 3533 1018 2982 230 2707 
C 333 2618 467 2445 538 2336 
C 1414 2675 2362 3354 2944 4115 
L 2944 2778 
L 3418 2778 
L 3418 4115 
C 4006 3373 4960 2701 5856 2374 
C 5926 2496 6061 2675 6170 2765 
C 5357 3027 4480 3552 3923 4141 
L 6042 4141 
L 6042 4563 
L 3418 4563 
L 3418 5376 
L 2944 5376 
z
" transform="scale(0.015625)"/>
     <path id="NotoSansCJKjp-Regular-300d" d="M 2240 -550 
L 2240 3590 
L 1766 3590 
L 1766 -109 
L 218 -109 
L 218 -550 
L 2240 -550 
z
" transform="scale(0.015625)"/>
     <path id="NotoSansCJKjp-Regular-6b21" d="M 243 806 
L 557 410 
C 986 826 1530 1382 2003 1901 
L 1734 2310 
C 1197 1741 614 1158 243 806 
z
M 448 4602 
C 858 4314 1363 3891 1606 3610 
L 1965 4006 
C 1715 4282 1197 4685 787 4947 
L 448 4602 
z
M 2854 5363 
C 2630 4339 2240 3334 1696 2707 
C 1824 2650 2054 2515 2157 2438 
C 2426 2797 2662 3245 2874 3750 
L 3654 3750 
L 3654 2931 
C 3654 2330 3322 653 1370 -115 
C 1459 -211 1606 -403 1664 -512 
C 3206 141 3795 1427 3904 2029 
C 4000 1434 4544 102 5894 -512 
C 5965 -397 6112 -198 6208 -83 
C 4461 672 4147 2368 4154 2931 
L 4154 3750 
L 5485 3750 
C 5350 3322 5152 2848 4986 2547 
C 5101 2502 5286 2400 5389 2349 
C 5626 2778 5926 3443 6099 4058 
L 5747 4250 
L 5651 4224 
L 3053 4224 
C 3168 4557 3270 4915 3354 5274 
L 2854 5363 
z
" transform="scale(0.015625)"/>
     <path id="NotoSansCJKjp-Regular-5225" d="M 3795 4608 
L 3795 1056 
L 4262 1056 
L 4262 4608 
L 3795 4608 
z
M 5363 5254 
L 5363 128 
C 5363 6 5318 -32 5197 -38 
C 5069 -45 4672 -45 4218 -32 
C 4288 -166 4365 -390 4397 -518 
C 4986 -518 5344 -506 5555 -429 
C 5754 -346 5843 -205 5843 128 
L 5843 5254 
L 5363 5254 
z
M 1050 4653 
L 2682 4653 
L 2682 3418 
L 1050 3418 
L 1050 4653 
z
M 608 5082 
L 608 2982 
L 1312 2982 
C 1248 1818 1075 506 211 -198 
C 326 -269 474 -410 550 -525 
C 1229 38 1523 922 1664 1862 
L 2726 1862 
C 2662 589 2592 102 2483 -19 
C 2432 -83 2368 -90 2259 -90 
C 2150 -90 1850 -90 1530 -58 
C 1606 -179 1651 -358 1664 -486 
C 1978 -499 2291 -506 2451 -486 
C 2643 -467 2765 -435 2867 -301 
C 3040 -102 3104 486 3181 2093 
C 3181 2150 3187 2291 3187 2291 
L 1722 2291 
C 1747 2522 1760 2752 1779 2982 
L 3142 2982 
L 3142 5082 
L 608 5082 
z
" transform="scale(0.015625)"/>
     <path id="NotoSansCJKjp-Regular-65" d="M 1997 -83 
C 2464 -83 2835 70 3136 269 
L 2931 659 
C 2669 486 2400 384 2061 384 
C 1402 384 947 858 909 1600 
L 3251 1600 
C 3264 1690 3277 1805 3277 1933 
C 3277 2925 2778 3565 1888 3565 
C 1094 3565 333 2867 333 1734 
C 333 589 1069 -83 1997 -83 
z
M 902 2016 
C 973 2707 1408 3098 1901 3098 
C 2445 3098 2765 2720 2765 2016 
L 902 2016 
z
" transform="scale(0.015625)"/>
     <path id="NotoSansCJKjp-Regular-2d" d="M 294 1568 
L 1933 1568 
L 1933 2016 
L 294 2016 
L 294 1568 
z
" transform="scale(0.015625)"/>
     <path id="NotoSansCJKjp-Regular-53" d="M 1946 -83 
C 2925 -83 3539 506 3539 1248 
C 3539 1946 3117 2266 2573 2502 
L 1907 2790 
C 1542 2944 1126 3117 1126 3578 
C 1126 3994 1472 4256 2003 4256 
C 2438 4256 2784 4090 3072 3821 
L 3379 4198 
C 3053 4538 2560 4774 2003 4774 
C 1152 4774 525 4256 525 3533 
C 525 2848 1043 2515 1478 2330 
L 2150 2035 
C 2598 1837 2938 1683 2938 1197 
C 2938 742 2573 435 1952 435 
C 1466 435 992 666 659 1018 
L 307 608 
C 710 186 1280 -83 1946 -83 
z
" transform="scale(0.015625)"/>
     <path id="NotoSansCJKjp-Regular-74" d="M 1677 -83 
C 1894 -83 2125 -19 2323 45 
L 2208 486 
C 2093 435 1939 390 1811 390 
C 1408 390 1274 634 1274 1056 
L 1274 3002 
L 2221 3002 
L 2221 3475 
L 1274 3475 
L 1274 4454 
L 787 4454 
L 723 3475 
L 173 3443 
L 173 3002 
L 691 3002 
L 691 1075 
C 691 378 941 -83 1677 -83 
z
" transform="scale(0.015625)"/>
     <path id="NotoSansCJKjp-Regular-61" d="M 1389 -83 
C 1818 -83 2208 141 2541 416 
L 2560 416 
L 2611 0 
L 3091 0 
L 3091 2138 
C 3091 3002 2739 3565 1888 3565 
C 1325 3565 838 3315 525 3110 
L 749 2707 
C 1024 2893 1389 3078 1792 3078 
C 2362 3078 2509 2650 2509 2202 
C 1030 2035 378 1658 378 902 
C 378 275 806 -83 1389 -83 
z
M 1555 390 
C 1210 390 941 544 941 941 
C 941 1389 1338 1677 2509 1811 
L 2509 845 
C 2170 544 1888 390 1555 390 
z
" transform="scale(0.015625)"/>
     <path id="NotoSansCJKjp-Regular-ff5c" d="M 3334 5632 
L 3066 5632 
L 3066 -768 
L 3334 -768 
L 3334 5632 
z
" transform="scale(0.015625)"/>
     <path id="NotoSansCJKjp-Regular-91d1" d="M 1293 1389 
C 1549 1024 1805 531 1882 211 
L 2298 390 
C 2214 710 1946 1190 1683 1542 
L 1293 1389 
z
M 4646 1555 
C 4480 1197 4186 685 3955 365 
L 4314 211 
C 4557 506 4851 973 5101 1376 
L 4646 1555 
z
M 467 115 
L 467 -307 
L 5939 -307 
L 5939 115 
L 3424 115 
L 3424 1715 
L 5632 1715 
L 5632 2138 
L 3424 2138 
L 3424 2995 
L 4800 2995 
L 4800 3392 
C 5152 3136 5517 2906 5869 2726 
C 5952 2867 6074 3040 6189 3155 
C 5184 3597 4077 4461 3392 5382 
L 2906 5382 
C 2406 4582 1344 3635 237 3078 
C 346 2976 474 2803 538 2694 
C 902 2886 1261 3117 1594 3366 
L 1594 2995 
L 2918 2995 
L 2918 2138 
L 762 2138 
L 762 1715 
L 2918 1715 
L 2918 115 
L 467 115 
z
M 3174 4915 
C 3552 4416 4128 3878 4755 3424 
L 1677 3424 
C 2298 3898 2835 4429 3174 4915 
z
" transform="scale(0.015625)"/>
     <path id="NotoSansCJKjp-Regular-878d" d="M 1139 3974 
L 2624 3974 
L 2624 3360 
L 1139 3360 
L 1139 3974 
z
M 723 4320 
L 723 3014 
L 3066 3014 
L 3066 4320 
L 723 4320 
z
M 384 5094 
L 384 4685 
L 3398 4685 
L 3398 5094 
L 384 5094 
z
M 3603 4102 
L 3603 1677 
L 4518 1677 
L 4518 224 
L 3430 58 
L 3546 -403 
L 5683 -13 
C 5728 -198 5760 -371 5779 -518 
L 6182 -403 
C 6118 51 5875 781 5606 1331 
L 5235 1235 
C 5357 979 5472 678 5562 390 
L 4947 288 
L 4947 1677 
L 5926 1677 
L 5926 4102 
L 4947 4102 
L 4947 5331 
L 4518 5331 
L 4518 4102 
L 3603 4102 
z
M 1120 1146 
L 1120 800 
L 1683 800 
L 1683 -333 
L 2048 -333 
L 2048 800 
L 2650 800 
L 2650 1146 
L 1120 1146 
z
M 3994 3686 
L 4544 3686 
L 4544 2106 
L 3994 2106 
L 3994 3686 
z
M 4922 3686 
L 5510 3686 
L 5510 2106 
L 4922 2106 
L 4922 3686 
z
M 2912 2285 
L 2912 1728 
C 2893 1702 2880 1696 2797 1696 
C 2739 1696 2528 1696 2490 1696 
C 2394 1696 2381 1702 2381 1798 
L 2381 2285 
L 2912 2285 
z
M 454 2650 
L 454 -499 
L 838 -499 
L 838 2285 
L 1363 2285 
L 1363 2266 
C 1363 2003 1312 1626 845 1389 
C 922 1344 1043 1242 1101 1171 
C 1606 1472 1670 1901 1670 2253 
L 1670 2285 
L 2067 2285 
L 2067 1792 
C 2067 1466 2144 1395 2458 1395 
C 2509 1395 2797 1395 2861 1395 
L 2912 1395 
L 2912 -45 
C 2912 -109 2893 -128 2829 -128 
C 2758 -134 2547 -134 2298 -128 
C 2349 -237 2400 -397 2413 -499 
C 2765 -499 2989 -493 3130 -435 
C 3277 -365 3309 -256 3309 -45 
L 3309 2650 
L 454 2650 
z
" transform="scale(0.015625)"/>
     <path id="NotoSansCJKjp-Regular-30fb" d="M 3200 3110 
C 2822 3110 2522 2810 2522 2432 
C 2522 2054 2822 1754 3200 1754 
C 3578 1754 3878 2054 3878 2432 
C 3878 2810 3578 3110 3200 3110 
z
" transform="scale(0.015625)"/>
     <path id="NotoSansCJKjp-Regular-4fdd" d="M 2893 4646 
L 5274 4646 
L 5274 3469 
L 2893 3469 
L 2893 4646 
z
M 2432 5075 
L 2432 3034 
L 3827 3034 
L 3827 2240 
L 1958 2240 
L 1958 1798 
L 3546 1798 
C 3110 1120 2432 474 1773 147 
C 1882 58 2029 -115 2106 -230 
C 2733 134 3379 774 3827 1485 
L 3827 -512 
L 4307 -512 
L 4307 1504 
C 4736 800 5350 128 5939 -243 
C 6022 -122 6170 45 6278 141 
C 5658 474 5005 1120 4595 1798 
L 6106 1798 
L 6106 2240 
L 4307 2240 
L 4307 3034 
L 5754 3034 
L 5754 5075 
L 2432 5075 
z
M 1773 5357 
C 1402 4390 787 3437 147 2822 
C 230 2714 371 2458 416 2349 
C 653 2586 883 2867 1107 3174 
L 1107 -493 
L 1568 -493 
L 1568 3885 
C 1818 4307 2042 4762 2221 5216 
L 1773 5357 
z
" transform="scale(0.015625)"/>
     <path id="NotoSansCJKjp-Regular-967a" d="M 518 5101 
L 518 -512 
L 947 -512 
L 947 4666 
L 1837 4666 
C 1683 4211 1478 3597 1274 3110 
C 1766 2630 1914 2221 1914 1882 
C 1914 1683 1882 1523 1773 1453 
C 1709 1408 1638 1395 1549 1389 
C 1446 1382 1299 1389 1139 1402 
C 1210 1280 1254 1094 1254 973 
C 1421 960 1594 966 1734 979 
C 1862 992 1990 1030 2080 1094 
C 2272 1222 2349 1485 2349 1830 
C 2349 2227 2214 2662 1715 3168 
C 1952 3706 2214 4397 2406 4928 
L 2086 5120 
L 2016 5101 
L 518 5101 
z
M 2566 2874 
L 2566 1229 
L 3872 1229 
C 3706 685 3258 186 2086 -179 
C 2176 -256 2304 -442 2349 -544 
C 3488 -179 4013 358 4243 941 
C 4627 128 5171 -250 5939 -544 
C 5990 -397 6112 -237 6227 -134 
C 5472 115 4941 435 4570 1229 
L 5856 1229 
L 5856 2874 
L 4403 2874 
L 4403 3430 
L 5478 3430 
L 5478 3795 
C 5658 3680 5837 3578 6010 3494 
C 6074 3622 6170 3795 6259 3904 
C 5581 4186 4845 4749 4384 5370 
L 3942 5370 
C 3597 4800 2880 4173 2144 3834 
C 2227 3731 2330 3558 2381 3443 
C 2573 3539 2765 3654 2950 3782 
L 2950 3430 
L 3962 3430 
L 3962 2874 
L 2566 2874 
z
M 4179 4954 
C 4480 4563 4934 4160 5414 3840 
L 3034 3840 
C 3507 4179 3923 4582 4179 4954 
z
M 2995 2483 
L 3962 2483 
L 3962 1933 
C 3962 1830 3955 1728 3949 1626 
L 2995 1626 
L 2995 2483 
z
M 4403 2483 
L 5414 2483 
L 5414 1626 
L 4390 1626 
L 4403 1920 
L 4403 2483 
z
" transform="scale(0.015625)"/>
     <path id="NotoSansCJKjp-Regular-3092" d="M 5645 2822 
L 5434 3302 
C 5254 3206 5101 3136 4909 3053 
C 4576 2899 4186 2746 3744 2534 
C 3648 2906 3309 3110 2893 3110 
C 2618 3110 2246 3027 2003 2874 
C 2221 3162 2432 3526 2579 3866 
C 3277 3891 4070 3942 4704 4045 
L 4710 4518 
C 4109 4410 3411 4352 2758 4320 
C 2854 4621 2906 4870 2944 5062 
L 2419 5107 
C 2406 4870 2349 4582 2259 4307 
L 1837 4301 
C 1542 4301 1094 4326 755 4371 
L 755 3891 
C 1107 3866 1530 3853 1805 3853 
L 2086 3853 
C 1843 3334 1414 2675 608 1894 
L 1043 1574 
C 1261 1830 1440 2067 1626 2240 
C 1914 2509 2323 2707 2726 2707 
C 3014 2707 3245 2586 3309 2310 
C 2560 1920 1798 1446 1798 691 
C 1798 -90 2534 -288 3450 -288 
C 4006 -288 4717 -237 5203 -173 
L 5216 339 
C 4653 243 3968 186 3469 186 
C 2810 186 2310 262 2310 762 
C 2310 1184 2726 1523 3322 1837 
C 3322 1504 3315 1088 3302 838 
L 3795 838 
L 3776 2067 
C 4262 2298 4717 2483 5075 2618 
C 5248 2688 5478 2778 5645 2822 
z
" transform="scale(0.015625)"/>
     <path id="NotoSansCJKjp-Regular-9664" d="M 4128 4922 
C 4544 4301 5286 3597 5952 3181 
C 6022 3302 6131 3482 6221 3584 
C 5536 3955 4794 4653 4326 5363 
L 3891 5363 
C 3546 4710 2829 3955 2099 3526 
C 2182 3430 2291 3264 2342 3149 
C 3072 3603 3763 4320 4128 4922 
z
M 2912 1536 
C 2720 1018 2413 512 2054 173 
C 2150 109 2323 -32 2400 -109 
C 2765 269 3123 851 3334 1434 
L 2912 1536 
z
M 4838 1370 
C 5171 915 5555 307 5709 -77 
L 6106 128 
C 5939 512 5555 1107 5203 1549 
L 4838 1370 
z
M 2490 2298 
L 2490 1882 
L 3910 1882 
L 3910 38 
C 3910 -45 3891 -64 3808 -70 
C 3718 -70 3456 -70 3155 -64 
C 3219 -192 3296 -390 3315 -512 
C 3718 -512 3981 -506 4147 -429 
C 4320 -352 4371 -218 4371 32 
L 4371 1882 
L 5901 1882 
L 5901 2298 
L 4371 2298 
L 4371 3098 
L 5402 3098 
L 5402 3507 
L 2918 3507 
L 2918 3098 
L 3910 3098 
L 3910 2298 
L 2490 2298 
z
M 518 5101 
L 518 -512 
L 947 -512 
L 947 4666 
L 1786 4666 
C 1651 4230 1459 3648 1274 3181 
C 1734 2682 1856 2253 1856 1901 
C 1856 1709 1818 1536 1722 1466 
C 1670 1427 1600 1414 1517 1408 
C 1414 1402 1293 1408 1146 1414 
C 1216 1293 1261 1107 1267 992 
C 1408 986 1568 992 1696 1005 
C 1830 1018 1939 1056 2029 1120 
C 2208 1242 2285 1510 2285 1856 
C 2285 2253 2176 2707 1709 3238 
C 1926 3750 2163 4403 2349 4934 
L 2035 5120 
L 1965 5101 
L 518 5101 
z
" transform="scale(0.015625)"/>
     <path id="NotoSansCJKjp-Regular-304f" d="M 4506 4723 
L 4032 5146 
C 3955 5024 3795 4845 3667 4717 
C 3232 4275 2259 3507 1779 3104 
C 1203 2618 1126 2342 1734 1837 
C 2330 1344 3302 512 3750 51 
C 3910 -102 4058 -262 4192 -416 
L 4646 6 
C 3968 685 2835 1600 2253 2074 
C 1843 2419 1850 2522 2234 2848 
C 2707 3245 3629 3974 4064 4358 
C 4173 4448 4371 4614 4506 4723 
z
" transform="scale(0.015625)"/>
    </defs>
    <use xlink:href="#NotoSansCJKjp-Regular-51fa"/>
    <use xlink:href="#NotoSansCJKjp-Regular-5178" transform="translate(99.999985 0)"/>
    <use xlink:href="#NotoSansCJKjp-Regular-ff1a" transform="translate(199.999969 0)"/>
    <use xlink:href="#NotoSansCJKjp-Regular-8ca1" transform="translate(299.999954 0)"/>
    <use xlink:href="#NotoSansCJKjp-Regular-52d9" transform="translate(399.999939 0)"/>
    <use xlink:href="#NotoSansCJKjp-Regular-7701" transform="translate(499.999924 0)"/>
    <use xlink:href="#NotoSansCJKjp-Regular-300c" transform="translate(599.999908 0)"/>
    <use xlink:href="#NotoSansCJKjp-Regular-6cd5" transform="translate(699.999893 0)"/>
    <use xlink:href="#NotoSansCJKjp-Regular-4eba" transform="translate(799.999878 0)"/>
    <use xlink:href="#NotoSansCJKjp-Regular-4f01" transform="translate(899.999863 0)"/>
    <use xlink:href="#NotoSansCJKjp-Regular-696d" transform="translate(999.999847 0)"/>
    <use xlink:href="#NotoSansCJKjp-Regular-7d71" transform="translate(1099.999832 0)"/>
    <use xlink:href="#NotoSansCJKjp-Regular-8a08" transform="translate(1199.999817 0)"/>
    <use xlink:href="#NotoSansCJKjp-Regular-8abf" transform="translate(1299.999802 0)"/>
    <use xlink:href="#NotoSansCJKjp-Regular-67fb" transform="translate(1399.999786 0)"/>
    <use xlink:href="#NotoSansCJKjp-Regular-300d" transform="translate(1499.999771 0)"/>
    <use xlink:href="#NotoSansCJKjp-Regular-5e74" transform="translate(1599.999756 0)"/>
    <use xlink:href="#NotoSansCJKjp-Regular-6b21" transform="translate(1699.999741 0)"/>
    <use xlink:href="#NotoSansCJKjp-Regular-5225" transform="translate(1799.999725 0)"/>
    <use xlink:href="#NotoSansCJKjp-Regular-8abf" transform="translate(1899.99971 0)"/>
    <use xlink:href="#NotoSansCJKjp-Regular-67fb" transform="translate(1999.999695 0)"/>
    <use xlink:href="#NotoSansCJKjp-Regular-ff08" transform="translate(2099.99968 0)"/>
    <use xlink:href="#NotoSansCJKjp-Regular-65" transform="translate(2199.999664 0)"/>
    <use xlink:href="#NotoSansCJKjp-Regular-2d" transform="translate(2255.399658 0)"/>
    <use xlink:href="#NotoSansCJKjp-Regular-53" transform="translate(2290.099655 0)"/>
    <use xlink:href="#NotoSansCJKjp-Regular-74" transform="translate(2349.699646 0)"/>
    <use xlink:href="#NotoSansCJKjp-Regular-61" transform="translate(2387.399643 0)"/>
    <use xlink:href="#NotoSansCJKjp-Regular-74" transform="translate(2443.699631 0)"/>
    <use xlink:href="#NotoSansCJKjp-Regular-ff09" transform="translate(2481.399628 0)"/>
    <use xlink:href="#NotoSansCJKjp-Regular-ff5c" transform="translate(2581.399612 0)"/>
    <use xlink:href="#NotoSansCJKjp-Regular-91d1" transform="translate(2681.399597 0)"/>
    <use xlink:href="#NotoSansCJKjp-Regular-878d" transform="translate(2781.399582 0)"/>
    <use xlink:href="#NotoSansCJKjp-Regular-696d" transform="translate(2881.399567 0)"/>
    <use xlink:href="#NotoSansCJKjp-Regular-30fb" transform="translate(2981.399551 0)"/>
    <use xlink:href="#NotoSansCJKjp-Regular-4fdd" transform="translate(3081.399536 0)"/>
    <use xlink:href="#NotoSansCJKjp-Regular-967a" transform="translate(3181.399521 0)"/>
    <use xlink:href="#NotoSansCJKjp-Regular-696d" transform="translate(3281.399506 0)"/>
    <use xlink:href="#NotoSansCJKjp-Regular-3092" transform="translate(3381.39949 0)"/>
    <use xlink:href="#NotoSansCJKjp-Regular-9664" transform="translate(3481.399475 0)"/>
    <use xlink:href="#NotoSansCJKjp-Regular-304f" transform="translate(3581.39946 0)"/>
   </g>
  </g>
 </g>
 <defs>
  <clipPath id="pb2f8f73e01">
   <rect x="64.8" y="81.648" width="773.28" height="248.832"/>
  </clipPath>
 </defs>
</svg>
